<?xml version="1.0" encoding="utf-8"?>
<!-- Generator: Adobe Illustrator 16.0.0, SVG Export Plug-In . SVG Version: 6.00 Build 0)  -->
<!DOCTYPE svg PUBLIC "-//W3C//DTD SVG 1.1//EN" "http://www.w3.org/Graphics/SVG/1.1/DTD/svg11.dtd">
<svg version="1.1" id="Layer_1" xmlns="http://www.w3.org/2000/svg" xmlns:xlink="http://www.w3.org/1999/xlink" x="0px" y="0px"
	 width="200px" height="200px" viewBox="0 0 200 200" enable-background="new 0 0 200 200" xml:space="preserve">
<g>
	<path fill="#FFFFFF" d="M134.7,62.175h-12.619c-1.743,0-3.156,1.413-3.156,3.156V77.95c0,1.744,1.413,3.156,3.156,3.156H134.7
		c1.743,0,3.156-1.413,3.156-3.156V65.331C137.856,63.587,136.443,62.175,134.7,62.175z"/>
	<path fill="#FFFFFF" d="M100.075,119.481c11.193,0,20.269-8.794,20.269-19.638s-9.075-19.638-20.269-19.638
		c-11.188,0-20.263,8.788-20.263,19.638C79.812,110.682,88.888,119.481,100.075,119.481z"/>
	<path fill="#FFFFFF" d="M137.85,90.569l-7.712,1.712c0.844,2.744,1.3,5.644,1.3,8.656c0,16.781-14.044,30.394-31.369,30.394
		c-17.312,0-31.363-13.618-31.363-30.394c0-3.013,0.457-5.913,1.3-8.656l-7.863-1.712v44.163c0,2.212,0.95,3.156,3.156,3.156h69.4
		c2.212,0,3.156-0.944,3.156-3.156h-0.007V90.569z"/>
	<path fill="#FFFFFF" d="M100,0C44.769,0,0,44.769,0,100c0,55.225,44.769,100,100,100s100-44.775,100-100
		C200,44.769,155.231,0,100,0z M150.469,137.888c0,7.125-5.494,12.618-12.619,12.618H62.144c-7.125,0-12.619-5.493-12.619-12.618
		V62.181c0-7.125,5.494-12.619,12.619-12.619h75.713c7.118,0,12.618,5.487,12.612,12.619V137.888z"/>
</g>
</svg>
