<?xml version="1.0" encoding="utf-8"?>
<!-- Generator: Adobe Illustrator 16.0.0, SVG Export Plug-In . SVG Version: 6.00 Build 0)  -->
<!DOCTYPE svg PUBLIC "-//W3C//DTD SVG 1.1//EN" "http://www.w3.org/Graphics/SVG/1.1/DTD/svg11.dtd">
<svg version="1.1" id="Layer_1" xmlns="http://www.w3.org/2000/svg" xmlns:xlink="http://www.w3.org/1999/xlink" x="0px" y="0px"
	 width="200px" height="200px" viewBox="0 0 200 200" enable-background="new 0 0 200 200" xml:space="preserve">
<path fill="#FFFFFF" d="M100,0.1C44.769,0.1,0,44.869,0,100.1c0,55.225,44.769,100,100,100s100-44.774,100-100
	C200,44.869,155.231,0.1,100,0.1z M110,128.875c-8.019,0-15.55-4.331-18.131-9.256c0,0-4.312,17.1-5.219,20.399
	c-3.212,11.663-12.668,23.331-13.4,24.288c-0.513,0.662-1.644,0.456-1.763-0.426c-0.206-1.487-2.612-16.199,0.225-28.206
	c1.425-6.024,9.544-40.443,9.544-40.443s-2.369-4.738-2.369-11.744c0-11,6.375-19.212,14.312-19.212
	c6.75,0,10.006,5.062,10.006,11.138c0,6.788-4.318,16.938-6.55,26.337c-1.862,7.875,3.95,14.3,11.713,14.3
	c14.062,0,23.531-18.062,23.531-39.462c0-16.262-10.95-28.444-30.882-28.444c-22.506,0-36.537,16.788-36.537,35.544
	c0,6.469,1.912,11.031,4.9,14.556c1.369,1.625,1.562,2.275,1.062,4.137c-0.363,1.369-1.169,4.65-1.519,5.957
	c-0.494,1.881-2.019,2.55-3.712,1.855c-10.369-4.23-15.2-15.593-15.2-28.356c0-21.081,17.781-46.362,53.044-46.362
	c28.344,0.019,46.987,20.519,46.987,42.531C150.044,107.119,133.856,128.875,110,128.875z"/>
</svg>
