<?xml version="1.0" encoding="utf-8"?>
<!-- Generator: Adobe Illustrator 16.0.0, SVG Export Plug-In . SVG Version: 6.00 Build 0)  -->
<!DOCTYPE svg PUBLIC "-//W3C//DTD SVG 1.1//EN" "http://www.w3.org/Graphics/SVG/1.1/DTD/svg11.dtd">
<svg version="1.1" id="Layer_1" xmlns="http://www.w3.org/2000/svg" xmlns:xlink="http://www.w3.org/1999/xlink" x="0px" y="0px"
	 width="200px" height="200px" viewBox="0 0 200 200" enable-background="new 0 0 200 200" xml:space="preserve">
<path fill="#FFFFFF" d="M100,0C44.769,0,0,44.769,0,100c0,55.225,44.769,100,100,100c55.23,0,100-44.775,100-100
	C200,44.769,155.23,0,100,0z M154.625,66.719c-0.48,0.8-2.943,3.612-5.568,6.188c-4.449,4.419-4.688,4.9-4.688,8.6
	c0,5.707-2.7,17.606-5.406,24.113c-5.013,12.226-15.744,24.851-26.48,31.198c-15.106,8.92-35.226,11.177-52.164,5.951
	c-5.638-1.774-15.344-6.274-15.344-7.076c0-0.242,2.944-0.562,6.525-0.644c7.475-0.149,14.95-2.237,21.312-5.942l4.294-2.575
	l-4.932-1.688c-7-2.412-13.281-7.963-14.869-13.188c-0.481-1.693-0.319-1.775,4.131-1.775l4.619-0.068l-3.9-1.85
	c-4.612-2.338-8.825-6.27-10.894-10.294c-1.513-2.9-3.419-10.213-2.863-10.775c0.156-0.243,1.832,0.237,3.738,0.882
	c5.481,2.006,6.2,1.524,3.019-1.851c-5.962-6.112-7.794-15.2-4.931-23.8l1.344-3.856l5.25,5.226
	c10.737,10.531,23.381,16.8,37.85,18.649l3.975,0.481l-0.237-3.938c-0.712-10.206,5.569-19.531,15.506-23.15
	c3.663-1.287,9.863-1.449,13.926-0.324c1.594,0.48,4.605,2.094,6.756,3.537l3.895,2.662l4.294-1.368
	c2.388-0.719,5.567-1.925,7-2.731c1.35-0.719,2.544-1.119,2.544-0.881c0,1.362-2.944,6.024-5.406,8.6
	c-3.344,3.619-2.388,3.938,4.368,1.525C155.338,65.188,155.425,65.188,154.625,66.719z"/>
</svg>
