<?xml version="1.0" encoding="utf-8"?>
<!-- Generator: Adobe Illustrator 16.0.0, SVG Export Plug-In . SVG Version: 6.00 Build 0)  -->
<!DOCTYPE svg PUBLIC "-//W3C//DTD SVG 1.1//EN" "http://www.w3.org/Graphics/SVG/1.1/DTD/svg11.dtd">
<svg version="1.1" id="Layer_1" xmlns="http://www.w3.org/2000/svg" xmlns:xlink="http://www.w3.org/1999/xlink" x="0px" y="0px"
	 width="200px" height="200px" viewBox="0 0 200 200" enable-background="new 0 0 200 200" xml:space="preserve">
<g>
	<path fill="#FFFFFF" d="M99.178,78.081c0.869,0,1.557-0.244,2.075-0.731c0.513-0.5,0.769-1.175,0.769-2.025v-17.45
		c0-0.7-0.263-1.269-0.787-1.7c-0.525-0.431-1.213-0.644-2.057-0.644c-0.787,0-1.425,0.212-1.918,0.644
		c-0.488,0.432-0.738,1-0.738,1.7v17.45c0,0.875,0.238,1.55,0.694,2.037C97.666,77.844,98.322,78.081,99.178,78.081z"/>
	<path fill="#FFFFFF" d="M100.003-0.031c-55.231,0-100,44.769-100,100c0,55.225,44.769,100,100,100s100-44.775,100-100
		C200.003,44.737,155.234-0.031,100.003-0.031z M113.803,50.788h6.425v24.556c0,0.756,0.15,1.306,0.419,1.644
		c0.263,0.344,0.706,0.513,1.307,0.513c0.469,0,1.068-0.225,1.794-0.675c0.719-0.45,1.387-1.025,1.98-1.725V50.788h6.438v32.031
		h-6.438v-3.538c-1.175,1.3-2.412,2.3-3.699,2.975c-1.281,0.681-2.525,1.025-3.731,1.025c-1.5,0-2.612-0.481-3.362-1.431
		c-0.75-0.957-1.132-2.381-1.132-4.294V50.788z M89.896,58.112c-0.006-2.487,0.863-4.462,2.6-5.931
		c1.725-1.469,4.062-2.206,6.981-2.206c2.663,0,4.85,0.781,6.556,2.331c1.693,1.55,2.544,3.55,2.55,5.988v16.55
		c0,2.737-0.831,4.881-2.493,6.444c-1.682,1.556-3.969,2.337-6.9,2.337c-2.812,0-5.069-0.806-6.763-2.413
		c-1.681-1.612-2.531-3.775-2.531-6.5V58.112z M72.365,39.406l4.707,17.35h0.456l4.475-17.35h7.369l-8.431,25.4v18.013h-7.25v-17.2
		l-8.625-26.212H72.365z M144.247,155.807c-4.7,4.681-44.263,4.787-44.263,4.787s-39.562-0.1-44.269-4.787
		c-4.712-4.7-4.719-27.851-4.719-28.025c0-0.131,0.013-23.318,4.719-28.019c4.707-4.688,44.269-4.75,44.269-4.75
		c0-0.006,39.568,0.056,44.263,4.75c4.712,4.7,4.769,27.888,4.769,28.019C149.016,127.781,148.978,151.094,144.247,155.807z"/>
</g>
<path fill="#FFFFFF" d="M140.571,133.275v-7.412c0-2.757-0.699-4.869-2.1-6.338c-1.406-1.469-3.419-2.206-6.037-2.206
	c-2.562,0-4.645,0.794-6.263,2.381c-1.612,1.588-2.432,3.65-2.432,6.163v13.056c0,2.807,0.75,5.007,2.213,6.594
	c1.469,1.601,3.493,2.394,6.05,2.394c2.844,0,4.987-0.75,6.412-2.25c1.444-1.519,2.15-3.762,2.15-6.743v-1.494h-5.875v1.325
	c0,1.719-0.2,2.818-0.575,3.318s-1.037,0.75-1.987,0.75c-0.912,0-1.55-0.287-1.938-0.881c-0.369-0.594-0.557-1.656-0.557-3.188
	v-5.469H140.571z M129.634,128.738v-2.938c0-1.219,0.194-2.094,0.588-2.606c0.4-0.544,1.057-0.8,1.963-0.8
	c0.868,0,1.512,0.256,1.894,0.8c0.399,0.513,0.606,1.388,0.606,2.606v2.938H129.634z"/>
<path fill="#FFFFFF" d="M119.315,119.531c-0.95-1.23-2.331-1.85-4.144-1.85c-0.888,0-1.763,0.225-2.638,0.693
	c-0.862,0.457-1.675,1.138-2.45,2.02V107.7h-5.774v39.413h5.774v-2.231c0.744,0.899,1.569,1.544,2.444,1.969
	c0.868,0.425,1.862,0.631,2.987,0.631c1.693,0,3-0.537,3.888-1.644c0.899-1.1,1.344-2.675,1.344-4.731v-16.138
	C120.747,122.588,120.278,120.77,119.315,119.531z M114.865,140.301c0,0.938-0.175,1.594-0.5,2
	c-0.325,0.418-0.837,0.618-1.537,0.618c-0.487,0-0.938-0.106-1.382-0.312c-0.443-0.2-0.899-0.562-1.362-1.024v-18.119
	c0.388-0.4,0.781-0.7,1.182-0.888c0.394-0.193,0.8-0.281,1.212-0.281c0.77,0,1.369,0.25,1.781,0.757
	c0.4,0.506,0.606,1.256,0.606,2.23V140.301L114.865,140.301z"/>
<path fill="#FFFFFF" d="M94.297,147.106v-3.193c-1.062,1.181-2.156,2.081-3.307,2.693c-1.144,0.625-2.25,0.925-3.318,0.925
	c-1.325,0-2.307-0.425-2.988-1.3c-0.656-0.868-1-2.156-1-3.894v-24.312h5.713v22.3c0,0.694,0.119,1.188,0.35,1.5
	c0.25,0.312,0.645,0.463,1.176,0.463c0.418,0,0.956-0.2,1.6-0.619c0.645-0.412,1.231-0.925,1.775-1.556v-22.088h5.706v29.081H94.297
	L94.297,147.106z"/>
<polygon fill="#FFFFFF" points="74.51,113.426 74.51,147.106 68.059,147.106 68.059,113.426 61.396,113.426 61.396,107.7 
	81.172,107.7 81.172,113.426 "/>
</svg>
