<?xml version="1.0" encoding="utf-8"?>
<!-- Generator: Adobe Illustrator 16.0.0, SVG Export Plug-In . SVG Version: 6.00 Build 0)  -->
<!DOCTYPE svg PUBLIC "-//W3C//DTD SVG 1.1//EN" "http://www.w3.org/Graphics/SVG/1.1/DTD/svg11.dtd">
<svg version="1.1" id="Layer_1" xmlns="http://www.w3.org/2000/svg" xmlns:xlink="http://www.w3.org/1999/xlink" x="0px" y="0px"
	 width="200px" height="200px" viewBox="0 0 200 200" enable-background="new 0 0 200 200" xml:space="preserve">
<g id="Flat_copy">
	<g>
		<path fill="#333333" d="M100-0.031c-55.231,0-100,44.769-100,100c0,55.225,44.769,100,100,100s100-44.775,100-100
			C200,44.737,155.231-0.031,100-0.031z"/>
	</g>
	<g>
		<path fill="#FFFFFF" d="M99.981,95.013c0-0.006,39.568,0.056,44.263,4.75c4.712,4.7,4.769,27.888,4.769,28.019
			c0,0-0.038,23.312-4.769,28.025c-4.7,4.681-44.263,4.787-44.263,4.787s-39.562-0.1-44.269-4.787
			c-4.712-4.7-4.719-27.851-4.719-28.025c0-0.131,0.013-23.318,4.719-28.019C60.419,95.075,99.981,95.013,99.981,95.013z"/>
		<path fill="#333333" d="M140.568,133.281v-7.412c0-2.757-0.699-4.869-2.1-6.338c-1.406-1.469-3.419-2.206-6.037-2.206
			c-2.562,0-4.645,0.794-6.263,2.381c-1.612,1.588-2.432,3.65-2.432,6.163v13.056c0,2.807,0.75,5.007,2.213,6.594
			c1.469,1.601,3.493,2.394,6.05,2.394c2.844,0,4.987-0.75,6.412-2.25c1.444-1.519,2.15-3.762,2.15-6.743v-1.494h-5.875v1.325
			c0,1.719-0.2,2.818-0.575,3.318s-1.037,0.75-1.987,0.75c-0.912,0-1.55-0.287-1.938-0.881c-0.369-0.594-0.557-1.656-0.557-3.188
			v-5.469H140.568z M129.631,128.744v-2.938c0-1.219,0.194-2.094,0.588-2.606c0.4-0.544,1.057-0.8,1.963-0.8
			c0.868,0,1.512,0.256,1.894,0.8c0.399,0.513,0.606,1.388,0.606,2.606v2.938H129.631z"/>
		<path fill="#333333" d="M119.312,119.537c-0.95-1.23-2.331-1.85-4.144-1.85c-0.888,0-1.763,0.225-2.638,0.693
			c-0.862,0.457-1.675,1.138-2.45,2.02v-12.694h-5.774v39.413h5.774v-2.231c0.744,0.899,1.569,1.544,2.444,1.969
			c0.868,0.425,1.862,0.631,2.987,0.631c1.693,0,3-0.537,3.888-1.644c0.899-1.1,1.344-2.675,1.344-4.731v-16.138
			C120.744,122.594,120.275,120.775,119.312,119.537z M114.862,140.307c0,0.938-0.175,1.594-0.5,2
			c-0.325,0.418-0.837,0.618-1.537,0.618c-0.487,0-0.938-0.106-1.382-0.312c-0.443-0.2-0.899-0.562-1.362-1.024v-18.119
			c0.388-0.4,0.781-0.7,1.182-0.888c0.394-0.193,0.8-0.281,1.212-0.281c0.77,0,1.369,0.25,1.781,0.757
			c0.4,0.506,0.606,1.256,0.606,2.23V140.307L114.862,140.307z"/>
		<path fill="#333333" d="M94.294,147.112v-3.193c-1.062,1.181-2.156,2.081-3.307,2.693c-1.144,0.625-2.25,0.925-3.318,0.925
			c-1.325,0-2.307-0.425-2.988-1.3c-0.656-0.868-1-2.156-1-3.894v-24.312h5.712v22.3c0,0.694,0.119,1.188,0.35,1.5
			c0.25,0.312,0.644,0.463,1.175,0.463c0.418,0,0.956-0.2,1.6-0.619c0.644-0.412,1.231-0.925,1.775-1.556v-22.088H100v29.081H94.294
			L94.294,147.112z"/>
		<polygon fill="#333333" points="74.506,113.432 74.506,147.112 68.056,147.112 68.056,113.432 61.394,113.432 61.394,107.706 
			81.169,107.706 81.169,113.432 		"/>
		<path fill="#FFFFFF" d="M132.162,82.819h-6.438v-3.538c-1.175,1.3-2.412,2.3-3.699,2.975c-1.281,0.681-2.525,1.025-3.731,1.025
			c-1.5,0-2.612-0.481-3.362-1.431c-0.75-0.957-1.132-2.381-1.132-4.294V50.788h6.425v24.556c0,0.756,0.15,1.306,0.419,1.644
			c0.263,0.344,0.706,0.513,1.307,0.513c0.469,0,1.068-0.225,1.794-0.675c0.719-0.45,1.387-1.025,1.98-1.725V50.788h6.438V82.819
			L132.162,82.819z"/>
		<path fill="#FFFFFF" d="M106.031,52.306c-1.706-1.55-3.894-2.331-6.556-2.331c-2.919,0-5.256,0.737-6.981,2.206
			c-1.737,1.469-2.606,3.444-2.6,5.931v16.6c0,2.725,0.85,4.888,2.531,6.5c1.694,1.606,3.95,2.413,6.763,2.413
			c2.932,0,5.219-0.781,6.9-2.337c1.662-1.562,2.493-3.707,2.493-6.444v-16.55C108.575,55.856,107.725,53.856,106.031,52.306z
			 M102.019,75.325c0,0.85-0.256,1.525-0.769,2.025c-0.519,0.487-1.206,0.731-2.075,0.731c-0.856,0-1.512-0.237-1.962-0.719
			c-0.456-0.487-0.694-1.162-0.694-2.037v-17.45c0-0.7,0.25-1.269,0.738-1.7c0.494-0.431,1.131-0.644,1.918-0.644
			c0.844,0,1.531,0.212,2.057,0.644c0.524,0.432,0.787,1,0.787,1.7V75.325z"/>
		<polygon fill="#FFFFFF" points="72.362,39.406 65.062,39.406 73.688,65.619 73.688,82.819 80.938,82.819 80.938,64.806 
			89.369,39.406 82,39.406 77.525,56.756 77.069,56.756 		"/>
	</g>
</g>
</svg>
