<?xml version="1.0" encoding="utf-8"?>
<!-- Generator: Adobe Illustrator 16.0.0, SVG Export Plug-In . SVG Version: 6.00 Build 0)  -->
<!DOCTYPE svg PUBLIC "-//W3C//DTD SVG 1.1//EN" "http://www.w3.org/Graphics/SVG/1.1/DTD/svg11.dtd">
<svg version="1.1" id="Layer_1" xmlns="http://www.w3.org/2000/svg" xmlns:xlink="http://www.w3.org/1999/xlink" x="0px" y="0px"
	 width="320px" height="320px" viewBox="0 0 320 320" enable-background="new 0 0 320 320" xml:space="preserve">
<g>
	<path fill="#A09F9F" d="M246.458,182.056c-7.592-0.555-14.768-0.783-21.525-0.692c-6.76,0.095-12.825,0.369-18.193,0.832
		c-5.369,0.463-9.905,1.018-13.608,1.664c-3.704,0.653-6.296,1.253-7.773,1.803c-9.445,14.078-18.934,27.5-28.47,40.275
		c-9.537,12.772-18.794,24.298-27.776,34.574c-8.979,10.276-17.496,18.932-25.546,25.969c-8.057,7.034-15.415,11.943-22.08,14.719
		c-7.037,2.222-12.917,1.85-17.638-1.112c-4.717-2.962-7.539-7.22-8.467-12.772c-0.37-11.667,2.451-23.01,8.467-34.023
		C69.867,242.275,77.92,232,88.012,222.466c10.093-9.535,21.801-18.05,35.131-25.55c13.33-7.5,27.125-13.471,41.383-17.914
		c7.034-12.396,14.209-25.487,21.524-39.273c7.315-13.783,14.349-27.432,21.109-40.941c6.755-13.505,13.053-26.369,18.886-38.579
		c5.831-12.21,10.783-22.943,14.856-32.198c-9.444,0.741-18.47,2.73-27.08,5.973c-8.609,3.243-16.621,7.36-24.024,12.358
		c-7.406,5.002-14.166,10.558-20.274,16.664c-6.11,6.111-11.344,12.407-15.692,18.886c-4.351,6.479-7.73,12.961-10.138,19.44
		c-2.406,6.482-3.608,12.403-3.608,17.773c-3.148-2.405-6.249-5.089-9.303-8.052c-3.055-2.962-5.603-6.205-7.641-9.722
		c-2.036-3.52-3.334-7.178-3.889-10.971c-0.554-3.798,0.187-7.637,2.223-11.527c5.185-9.63,12.452-18.236,21.801-25.828
		c9.352-7.591,19.949-14.025,31.8-19.311c11.853-5.285,24.627-9.324,38.328-12.125c13.702-2.797,27.587-4.198,41.661-4.198
		c0.367,0,1.386,0.877,3.055,2.64c1.666,1.759,3.149,4.257,4.444,7.5c1.295,3.24,1.988,7.128,2.081,11.663
		c0.09,4.538-1.251,9.672-4.024,15.415c-4.26,8.705-9.123,18.148-14.584,28.33c-5.461,10.186-11.2,20.599-17.219,31.248
		c-6.019,10.645-12.129,21.107-18.331,31.384c-6.204,10.28-12.081,19.862-17.633,28.748c7.96-1.109,17.217-1.572,27.772-1.386
		c10.554,0.186,20.458,0.649,29.715,1.386L246.458,182.056z M156.75,192.167c-12.591,5.184-23.885,11.249-33.884,18.188
		c-9.998,6.945-18.421,14.72-25.272,23.329c-6.849,8.609-11.896,18.1-15.137,28.468c-3.241,10.371-4.305,21.476-3.194,33.328
		c11.849-10.181,23.838-23.42,35.968-39.712c12.127-16.296,24.855-35.547,38.186-57.771L156.75,192.167z"/>
</g>
</svg>
