<?xml version="1.0" encoding="utf-8"?>
<!-- Generator: Adobe Illustrator 16.0.0, SVG Export Plug-In . SVG Version: 6.00 Build 0)  -->
<!DOCTYPE svg PUBLIC "-//W3C//DTD SVG 1.1//EN" "http://www.w3.org/Graphics/SVG/1.1/DTD/svg11.dtd">
<svg version="1.1" id="Layer_1" xmlns="http://www.w3.org/2000/svg" xmlns:xlink="http://www.w3.org/1999/xlink" x="0px" y="0px"
	 width="1989.609px" height="732.721px" viewBox="0 0 1989.609 732.721" enable-background="new 0 0 1989.609 732.721"
	 xml:space="preserve">
<g>
	<path fill="#FFFFFF" d="M490.874,423.023c-19.506-1.427-37.931-2.018-55.286-1.784c-17.366,0.245-32.937,0.958-46.725,2.14
		c-13.799,1.193-25.447,2.619-34.955,4.28c-9.519,1.672-16.173,3.21-19.974,4.637c-24.254,36.147-48.631,70.623-73.119,103.437
		c-24.5,32.815-48.274,62.419-71.336,88.813c-23.073,26.395-44.941,48.62-65.629,66.699c-20.688,18.068-39.591,30.674-56.712,37.808
		c-18.08,5.707-33.171,4.748-45.298-2.854c-12.127-7.613-19.373-18.547-21.758-32.814C-0.865,663.425,6.391,634.289,21.84,606
		c15.449-28.3,36.136-54.695,62.062-79.183c25.915-24.488,55.999-46.368,90.24-65.629s69.664-34.598,106.291-46.012
		c18.068-31.856,36.493-65.506,55.285-100.94c18.782-35.423,36.85-70.5,54.216-105.221c17.354-34.709,33.528-67.769,48.508-99.157
		c14.98-31.388,27.698-58.964,38.165-82.75c-24.254,1.906-47.438,7.022-69.552,15.337c-22.114,8.326-42.69,18.904-61.706,31.744
		c-19.027,12.841-36.382,27.108-52.076,42.802s-29.136,31.867-40.305,48.509c-11.18,16.652-19.863,33.293-26.038,49.935
		c-6.186,16.652-9.274,31.867-9.274,45.655c-8.092-6.175-16.05-13.074-23.897-20.688c-7.847-7.602-14.39-15.928-19.617-24.967
		c-5.239-9.029-8.561-18.425-9.987-28.178c-1.427-9.742,0.468-19.618,5.707-29.604c13.309-24.722,31.979-46.836,55.999-66.342
		c24.009-19.495,51.24-36.025,81.68-49.579c30.429-13.554,63.244-23.897,98.443-31.031C441.173,3.567,476.841,0,512.988,0
		c0.948,0,3.567,2.263,7.847,6.777c4.28,4.525,8.081,10.945,11.414,19.261c3.322,8.326,5.105,18.313,5.35,29.961
		c0.234,11.659-3.21,24.856-10.343,39.591c-10.946,22.359-23.43,46.614-37.452,72.763c-14.033,26.161-28.779,52.912-44.228,80.253
		c-15.46,27.353-31.154,54.215-47.082,80.609c-15.939,26.395-31.031,51.005-45.298,73.833c20.442-2.854,44.229-4.035,71.336-3.567
		c27.108,0.479,52.543,1.672,76.33,3.567L490.874,423.023z M260.458,448.704c-32.346,13.32-61.349,28.891-87.03,46.725
		c-25.681,17.834-47.327,37.808-64.916,59.922c-17.6,22.114-30.563,46.48-38.878,73.119c-8.326,26.628-11.057,55.163-8.204,85.604
		c30.429-26.161,61.226-60.167,92.38-102.011c31.143-41.854,63.846-91.31,98.087-148.379L260.458,448.704z"/>
	<path fill="#FFFFFF" d="M818.299,404.476c-16.652,18.547-34.007,36.27-52.075,53.145c-18.079,16.887-35.913,31.633-53.502,44.229
		c-17.6,12.606-34.486,22.471-50.648,29.604c-16.173,7.133-30.675,10.7-43.515,10.7c-10.946-9.508-16.173-23.775-15.694-42.802
		c0.468-19.015,5.707-41.375,15.694-67.056c-9.519,11.414-20.219,22.593-32.101,33.528c-11.893,10.946-24.254,21.29-37.095,31.031
		c-12.841,9.753-25.804,18.67-38.878,26.751c-13.085,8.092-26.038,14.512-38.878,19.261c-12.361-9.987-19.974-24.009-22.828-42.088
		c-2.854-18.068-1.661-36.972,3.567-56.712c5.239-19.729,14.267-39.112,27.108-58.139c12.84-19.016,28.768-34.709,47.795-47.082
		c19.016-12.361,40.662-19.852,64.916-22.471c24.254-2.608,50.649,2.263,79.183,14.624c22.348-34.709,35.423-60.747,39.235-78.113
		c3.801-17.354-3.567-22.939-22.114-16.764c-7.133,2.385-16.173,7.022-27.107,13.91c-10.946,6.9-22.359,13.799-34.241,20.688
		c-11.893,6.9-23.786,12.606-35.668,17.121c-11.893,4.525-22.114,5.83-30.674,3.924c-3.333-0.468-6.309-3.088-8.917-7.847
		c-2.619-4.748-4.637-10.578-6.063-17.477c-1.427-6.889-2.029-14.379-1.783-22.471c0.234-8.081,1.538-15.694,3.923-22.828
		c6.175,5.707,14.858,8.561,26.038,8.561c11.168,0,23.775-1.182,37.808-3.567c14.022-2.374,28.646-5.105,43.872-8.204
		c15.215-3.087,30.429-5.105,45.655-6.063c13.788-0.468,24.967,2.497,33.528,8.917c8.56,6.42,14.98,14.033,19.261,22.828
		c4.28,8.805,6.888,17.477,7.847,26.038c0.948,8.56,0.713,14.512-0.713,17.834c-8.092,18.547-18.313,36.626-30.674,54.215
		c-12.373,17.6-24.733,35.077-37.095,52.432c-12.373,17.366-23.541,34.955-33.528,52.789c-9.987,17.834-16.407,36.504-19.261,55.999
		c10.935,0.958,22.939-1.304,36.024-6.777c13.075-5.461,26.628-13.197,40.662-23.184c14.022-9.987,28.289-21.992,42.802-36.025
		c14.501-14.022,28.646-28.891,42.445-44.585L818.299,404.476z M509.415,495.072c19.495-6.175,39.703-17.946,60.636-35.312
		c20.921-17.354,42.801-39.112,65.629-65.272c3.801-7.602,7.958-15.571,12.484-23.897c4.514-8.315,9.63-17.232,15.337-26.751
		c-14.268-3.322-28.3-2.854-42.088,1.427c-13.799,4.28-26.64,10.945-38.521,19.974c-11.893,9.04-22.716,19.617-32.458,31.744
		c-9.753,12.127-17.957,24.377-24.611,36.738c-6.666,12.372-11.414,24.02-14.267,34.955
		C508.701,479.624,507.988,488.418,509.415,495.072z"/>
	<path fill="#FFFFFF" d="M958.11,407.329c-16.653,18.547-33.885,36.025-51.719,52.432s-35.434,30.797-52.789,43.158
		c-17.366,12.373-33.885,22.114-49.579,29.248c-15.694,7.133-29.961,10.7-42.802,10.7c-10.935-9.987-16.05-25.324-15.337-46.012
		s6.309-45.053,16.764-73.12c10.466-28.055,25.324-58.729,44.585-92.023c19.261-33.283,41.966-67.056,68.126-101.297
		c5.707-7.602,12.239-12.718,19.617-15.337c7.368-2.608,15.092-3.566,23.185-2.854c8.081,0.713,15.928,2.386,23.541,4.994
		c7.602,2.62,14.735,5.596,21.401,8.917c-29.961,32.814-56.244,64.448-78.826,94.877c-22.593,30.44-41.731,58.139-57.425,83.106
		s-27.71,46.614-36.025,64.916c-8.315,18.313-13.197,32.224-14.624,41.731c11.414,0.958,24.009-1.661,37.808-7.847
		c13.788-6.175,28.178-14.735,43.159-25.681c14.98-10.935,30.195-23.775,45.655-38.521c15.449-14.735,30.552-30.429,45.298-47.082
		L958.11,407.329z M944.556,171.207c0-7.602,2.018-16.764,6.063-27.464c4.035-10.7,9.029-21.512,14.981-32.458
		c5.941-10.934,12.361-21.044,19.261-30.317c6.888-9.274,13.197-16.051,18.904-20.331c7.134-5.228,16.407-6.888,27.821-4.993
		c11.413,1.906,21.991,5.35,31.744,10.343c9.742,4.994,17.478,10.344,23.185,16.051s6.42,9.519,2.14,11.414
		c-14.267,7.613-27.709,15.939-40.305,24.968c-12.606,9.04-24.143,18.079-34.598,27.108c-10.467,9.04-19.384,17.6-26.751,25.681
		c-7.378,8.092-12.963,14.513-16.764,19.261c-0.958,1.427-2.854,1.549-5.707,0.357c-2.854-1.182-5.707-3.088-8.56-5.707
		c-2.854-2.608-5.473-5.228-7.847-7.847C945.737,174.662,944.556,172.633,944.556,171.207z"/>
	<path fill="#FFFFFF" d="M935.991,547.147c-18.547,0-35.066-4.392-49.579-13.197c-14.501-8.794-25.792-20.331-33.885-34.598
		c-8.081-14.267-12.127-30.195-12.127-47.795c0-17.589,5.707-35.423,17.121-53.502c8.561-13.788,20.331-24.132,35.312-31.031
		c14.98-6.888,29.727-9.987,44.228-9.273c14.501,0.713,27.108,5.473,37.808,14.267c10.701,8.806,16.051,22.002,16.051,39.591
		c-0.479,8.561-3.099,15.816-7.847,21.757c-4.759,5.952-10.589,10.823-17.477,14.624c-6.9,3.812-14.033,6.666-21.401,8.561
		c-7.379,1.906-13.911,3.099-19.618,3.566c8.561-12.84,12.952-24.254,13.197-34.241c0.234-9.987-2.028-17.588-6.777-22.827
		c-4.749-5.228-11.291-7.958-19.617-8.204c-8.315-0.234-16.285,3.21-23.898,10.343c-10.455,11.414-16.998,24.021-19.617,37.808
		c-2.608,13.799-2.018,26.395,1.783,37.808c3.812,11.414,10.701,20.688,20.688,27.821c9.987,7.133,22.114,9.753,36.381,7.847
		c5.707-0.468,12.718-2.14,21.044-4.993c8.315-2.854,16.764-7.49,25.324-13.911c8.56-6.42,16.519-15.092,23.897-26.038
		c7.367-10.935,12.951-24.968,16.764-42.088c2.375-16.641,1.66-33.884-2.141-51.718c-3.811-17.834-7.256-35.545-10.344-53.146
		c-3.098-17.589-4.045-34.476-2.854-50.648c1.182-16.162,7.959-30.675,20.332-43.515c8.561-9.028,18.068-15.215,28.533-18.547
		c10.455-3.322,20.332-4.28,29.605-2.854s17.232,5.116,23.896,11.057c6.654,5.952,10.455,13.676,11.414,23.184
		c10.455-11.414,21.992-20.564,34.598-27.464c12.596-6.888,25.559-9.864,38.879-8.917c-16.652,20.454-30.439,41.498-41.375,63.132
		c-10.945,21.646-17.834,43.872-20.688,66.699c-2.385,0.479-6.309-0.111-11.77-1.783c-5.473-1.661-10.701-4.392-15.695-8.204
		c-4.992-3.801-8.916-8.672-11.77-14.624c-2.854-5.941-2.854-12.952,0-21.044c0.947-3.801,2.252-7.368,3.924-10.701
		c1.66-3.321,3.443-6.888,5.35-10.7c1.895-6.175,2.018-11.291,0.357-15.337c-1.672-4.035-4.047-7.011-7.135-8.917
		c-3.098-1.895-6.664-2.608-10.699-2.14c-4.047,0.479-7.258,1.906-9.631,4.28c-8.561,8.561-12.484,22.593-11.771,42.088
		c0.715,19.506,4.393,41.375,11.059,65.629c6.174,23.307,8.203,46.369,6.062,69.196c-2.141,22.828-8.561,43.281-19.26,61.349
		c-10.701,18.079-25.805,32.703-45.299,43.872C987.821,540.85,964.046,546.668,935.991,547.147z"/>
	<path fill="#FFFFFF" d="M1475.995,379.508c-9.987,7.613-20.453,14.624-31.388,21.044c-10.945,6.42-21.758,12.127-32.458,17.121
		c-10.7,4.994-20.933,9.04-30.675,12.127c-9.753,3.099-18.19,5.116-25.324,6.063c-13.319,20.453-27.943,37.931-43.871,52.432
		c-15.939,14.513-31.867,26.283-47.795,35.312c-15.939,9.04-31.276,15.103-46.012,18.191c-14.747,3.087-27.588,3.444-38.521,1.07
		c-9.04-2.374-16.53-7.368-22.472-14.98c-5.951-7.602-10.822-16.642-14.623-27.108c-3.801-10.455-6.421-21.757-7.848-33.884
		c-1.427-12.127-1.895-23.898-1.427-35.312c0.479-21.869,4.525-44.585,12.128-68.126c7.602-23.541,18.302-45.655,32.101-66.342
		c13.788-20.688,30.43-38.99,49.936-54.929c19.494-15.928,41.375-27.464,65.629-34.598c8.561-2.374,16.998-2.73,25.324-1.07
		c8.315,1.672,15.571,5.116,21.758,10.344c6.175,5.239,10.7,11.893,13.554,19.974c2.854,8.092,2.854,17.366,0,27.821
		c-17.121-0.468-34.13,2.497-51.006,8.917c-16.886,6.42-32.937,15.583-48.151,27.464c-15.226,11.893-28.891,25.804-41.019,41.731
		c-12.127,15.939-22.002,32.815-29.604,50.649c-7.612,17.834-12.249,36.147-13.91,54.929c-1.672,18.792,0.356,36.983,6.063,54.572
		c3.321,8.092,7.49,13.086,12.484,14.98c4.993,1.906,11.524,1.672,19.617-0.713c16.642-5.228,32.926-14.98,48.865-29.248
		c15.928-14.267,28.891-32.101,38.878-53.502c-13.799-4.749-23.185-11.771-28.178-21.044c-4.993-9.274-7.134-19.261-6.42-29.961
		c0.713-10.7,3.21-21.155,7.49-31.388c4.28-10.221,9.028-18.659,14.267-25.324c10.935-14.735,24.01-27.576,39.235-38.521
		c15.214-10.935,32.814-18.068,52.788-21.401c10.455,5.239,16.998,13.799,19.617,25.681c2.608,11.893,2.854,24.967,0.714,39.235
		c-2.14,14.267-5.952,28.534-11.414,42.801c-5.473,14.267-10.589,26.395-15.337,36.381c4.748-0.468,10.935-1.895,18.547-4.28
		c7.603-2.374,15.806-5.707,24.611-9.987c8.794-4.28,17.945-9.274,27.465-14.98c9.507-5.707,18.302-12.127,26.394-19.261
		L1475.995,379.508z M1323.336,326.719c-7.612,4.28-14.513,10.466-20.688,18.547c-6.186,8.092-10.589,16.407-13.197,24.967
		c-2.619,8.561-2.854,16.653-0.713,24.254c2.14,7.613,7.725,13.086,16.764,16.407c1.427-4.28,3.088-9.864,4.994-16.764
		c1.895-6.889,3.678-14.022,5.35-21.401c1.661-7.368,3.088-14.624,4.28-21.758c1.182-7.133,2.018-13.074,2.497-17.834
		L1323.336,326.719z"/>
	<path fill="#FFFFFF" d="M1749.212,389.495c-17.601,20.454-35.913,39.948-54.929,58.496c-19.027,18.547-37.931,34.843-56.713,48.865
		c-18.792,14.033-36.86,25.213-54.215,33.528c-17.366,8.326-32.938,12.484-46.726,12.484c-9.519-5.707-16.529-14.624-21.044-26.751
		c-4.525-12.127-4.525-28.534,0-49.222c4.515-20.688,14.502-46.012,29.961-75.973c15.449-29.961,38.634-65.629,69.553-107.004
		c-13.799,10.946-28.779,24.611-44.941,41.018c-16.173,16.407-33.06,35.434-50.648,57.069c-17.6,21.646-35.668,45.9-54.216,72.763
		c-18.547,26.874-36.86,56.244-54.929,88.1c-12.36-6.175-19.852-16.285-22.471-30.318c-2.608-14.022-1.783-30.429,2.497-49.222
		c4.28-18.782,11.057-38.878,20.331-60.279c9.273-21.401,19.852-42.557,31.744-63.489c11.882-20.921,24.365-40.773,37.451-59.565
		c13.075-18.782,25.324-34.832,36.738-48.152c5.707-7.602,12.238-12.718,19.617-15.337c7.368-2.608,14.98-3.678,22.828-3.21
		c7.847,0.479,15.571,2.14,23.184,4.994c7.602,2.853,14.735,5.952,21.401,9.273c-21.401,20.933-39.48,39.837-54.216,56.712
		c-14.746,16.886-27.23,32.458-37.451,46.725c-10.232,14.267-19.026,27.709-26.395,40.305
		c-7.379,12.606-14.624,25.324-21.758,38.165c19.495-24.722,37.809-46.603,54.929-65.629c17.121-19.016,33.528-35.902,49.223-50.648
		c15.693-14.735,30.908-27.821,45.654-39.235c14.735-11.414,29.482-21.869,44.229-31.388c5.707-4.748,12.005-7.847,18.904-9.273
		c6.889-1.427,13.91-1.661,21.044-0.713c7.134,0.958,14.268,2.742,21.4,5.35c7.134,2.62,13.555,5.35,19.261,8.204
		c-29.961,32.814-56.243,64.448-78.826,94.877c-22.593,30.44-41.731,58.139-57.425,83.106
		c-15.694,24.968-27.71,46.614-36.025,64.916c-8.326,18.313-13.197,32.224-14.623,41.731c11.882,0.958,25.324-2.018,40.305-8.917
		c14.98-6.889,30.552-16.407,46.725-28.535c16.162-12.127,32.569-26.394,49.222-42.801c16.642-16.408,32.569-33.885,47.796-52.432
		L1749.212,389.495z"/>
	<path fill="#FFFFFF" d="M1989.609,397.342c-43.28,51.841-86.562,90.363-129.831,115.564
		c-43.281,25.212-82.75,38.276-118.418,39.234c-3.812,0-10.589-0.245-20.331-0.713c-9.753-0.479-19.617-2.854-29.604-7.134
		c-9.986-4.28-18.903-11.057-26.751-20.331c-7.847-9.274-11.524-22.705-11.057-40.305c0.479-14.267,4.993-28.891,13.554-43.872
		s19.975-29.248,34.241-42.802c14.268-13.554,30.786-25.681,49.579-36.381c18.781-10.7,38.164-18.659,58.139-23.897
		c-13.32-3.801-23.073-10.935-29.248-21.401c-6.187-10.455-8.203-21.869-6.063-34.241c2.14-12.361,8.794-24.611,19.974-36.738
		c11.169-12.127,27.22-21.758,48.152-28.891c14.735-4.749,30.195-6.42,46.368-4.994c16.162,1.427,29.961,5.707,41.375,12.84
		c11.414,7.134,19.261,16.53,23.541,28.178c4.28,11.659,2.374,24.856-5.707,39.592c-5.238,6.666-11.057,11.18-17.478,13.554
		c-6.42,2.385-12.84,3.333-19.261,2.854c-6.42-0.468-12.84-2.018-19.261-4.637c-6.42-2.608-12.249-5.351-17.477-8.204
		c7.602-4.28,14.267-9.742,19.974-16.408c5.707-6.654,9.742-13.197,12.127-19.617c2.374-6.42,2.608-11.882,0.714-16.407
		c-1.906-4.514-6.9-6.532-14.98-6.063c-13.8,0.958-25.091,6.309-33.885,16.05c-8.806,9.753-14.624,20.331-17.478,31.745
		s-2.386,21.646,1.427,30.674c3.801,9.04,11.414,12.841,22.827,11.414c13.309-1.427,23.062,0.123,29.248,4.637
		c6.175,4.525,8.917,9.519,8.203,14.98c-0.713,5.473-4.759,10.11-12.127,13.911c-7.379,3.812-17.723,4.046-31.031,0.713
		c-17.12,1.427-34.486,7.97-52.075,19.617c-17.6,11.659-33.294,25.09-47.081,40.305c-13.8,15.226-24.255,30.674-31.389,46.368
		c-7.133,15.694-8.56,28.3-4.279,37.808c4.279,9.519,14.021,15.226,29.247,17.121c15.215,1.906,34.241-1.304,57.069-9.63
		c22.827-8.315,48.386-22.471,76.686-42.445c28.29-19.974,57.426-47.082,87.387-81.323L1989.609,397.342z"/>
</g>
</svg>
