<?xml version="1.0" ?><svg enable-background="new 0 0 32 32" version="1.1" viewBox="0 0 32 32" xml:space="preserve" xmlns="http://www.w3.org/2000/svg" xmlns:xlink="http://www.w3.org/1999/xlink"><g id="Flat_copy"><g><path d="M16,0C7.163,0,0,7.163,0,16c0,8.836,7.163,16,16,16s16-7.164,16-16C32,7.163,24.837,0,16,0z" fill="#333333"/></g><path d="M20.244,22.441l1.796-1.077v0.98l-6.054,3.927l-5.92-3.955v-0.923l1.771,1.049l0.197,0.116l0.182-0.139   l3.824-2.935l3.823,2.935l0.183,0.139L20.244,22.441z M16.053,11.367l5.822,3.345L16,18.604l-5.839-3.678L16.053,11.367z    M26.163,11.562l-5.998-3.833l-4.124,3.458l-4.031-3.458L5.837,11.75l4.25,3.233l-4.25,3.233l4.229,2.505l1.944,1.15l4.031-3.093   l4.03,3.093l1.97-1.182l4.123-2.473l-3.936-3.375L26.163,11.562z" fill="#FFFFFF"/></g></svg>