<?xml version="1.0" encoding="utf-8"?>
<!-- Generator: Adobe Illustrator 16.0.0, SVG Export Plug-In . SVG Version: 6.00 Build 0)  -->
<!DOCTYPE svg PUBLIC "-//W3C//DTD SVG 1.1//EN" "http://www.w3.org/Graphics/SVG/1.1/DTD/svg11.dtd">
<svg version="1.1" id="Layer_1" xmlns="http://www.w3.org/2000/svg" xmlns:xlink="http://www.w3.org/1999/xlink" x="0px" y="0px"
	 width="15.607px" height="26.213px" viewBox="0 0 15.607 26.213" enable-background="new 0 0 15.607 26.213" xml:space="preserve">
<path d="M14.875,14.874c-0.977,0.977-2.559,0.977-3.536,0L0.732,4.268c-0.977-0.977-0.977-2.56,0-3.535l0,0
	c0.976-0.977,2.559-0.977,3.535,0l10.607,10.606C15.851,12.315,15.851,13.897,14.875,14.874L14.875,14.874z"/>
<path d="M14.875,11.339c0.976,0.977,0.977,2.559,0,3.535L4.268,25.48c-0.977,0.977-2.56,0.977-3.536,0l0,0
	c-0.976-0.976-0.976-2.559,0-3.535l10.606-10.606C12.315,10.362,13.898,10.362,14.875,11.339L14.875,11.339z"/>
</svg>
