<?xml version="1.0" encoding="utf-8"?>
<!-- Generator: Adobe Illustrator 16.0.0, SVG Export Plug-In . SVG Version: 6.00 Build 0)  -->
<!DOCTYPE svg PUBLIC "-//W3C//DTD SVG 1.1//EN" "http://www.w3.org/Graphics/SVG/1.1/DTD/svg11.dtd">
<svg version="1.1" id="Layer_1" xmlns="http://www.w3.org/2000/svg" xmlns:xlink="http://www.w3.org/1999/xlink" x="0px" y="0px"
	 width="2000px" height="2000px" viewBox="0 0 2000 2000" enable-background="new 0 0 2000 2000" xml:space="preserve">
<path fill="#BC3636" d="M997.396,2003.037c-134.608,0-265.237-26.493-388.26-78.741c-59.119-25.109-116.133-56.184-169.457-92.355
	c-52.794-35.816-102.437-76.945-147.548-122.242c-45.112-45.297-86.07-95.146-121.737-148.159
	c-36.025-53.543-66.971-110.793-91.976-170.157C26.383,1267.852,0,1136.683,0,1001.519s26.383-266.333,78.417-389.864
	c25.005-59.363,55.951-116.613,91.976-170.158c35.667-53.012,76.625-102.86,121.737-148.158
	c45.111-45.298,94.754-86.426,147.548-122.241c53.324-36.173,110.338-67.247,169.457-92.356C732.159,26.493,862.789,0,997.396,0
	c134.607,0,265.237,26.493,388.26,78.741c59.119,25.109,116.133,56.183,169.457,92.356
	c52.795,35.815,102.437,76.943,147.548,122.241c45.112,45.297,86.07,95.146,121.738,148.158
	c36.024,53.545,66.97,110.795,91.976,170.158c52.035,123.531,78.418,254.7,78.418,389.864s-26.383,266.333-78.418,389.863
	c-25.006,59.364-55.951,116.614-91.976,170.157c-35.668,53.014-76.626,102.862-121.738,148.159
	c-45.111,45.297-94.753,86.426-147.548,122.242c-53.324,36.172-110.338,67.246-169.457,92.355
	C1262.634,1976.544,1132.004,2003.037,997.396,2003.037z M997.396,182.094c-110.207,0-217.068,21.653-317.617,64.357
	c-97.164,41.267-184.445,100.363-259.418,175.647c-74.975,75.284-133.828,162.926-174.924,260.492
	c-42.528,100.964-64.092,208.267-64.092,318.929c0,110.661,21.563,217.965,64.092,318.928
	c41.097,97.566,99.95,185.207,174.924,260.493c74.974,75.281,162.254,134.38,259.418,175.646
	c100.549,42.702,207.41,64.356,317.617,64.356c110.206,0,217.068-21.654,317.615-64.356
	c97.166-41.267,184.445-100.365,259.421-175.646c74.973-75.286,133.827-162.927,174.923-260.493
	c42.528-100.963,64.093-208.267,64.093-318.928c0-110.662-21.564-217.965-64.093-318.929
	c-41.096-97.566-99.95-185.208-174.923-260.492c-74.976-75.284-162.255-134.38-259.421-175.647
	C1214.465,203.748,1107.603,182.094,997.396,182.094z"/>
<g>
	<path fill="#BC3636" d="M835.719,1219.479L545.558,927.553c-23.483-23.346-43.026-35.018-58.501-35.018
		c-10.986,0-25.646,7.192-43.292,21.715l-9.904,9.909l-35.019-23.479l11.672-8.418c15.475-13.297,35.559-31.756,60.124-55.101
		l148.338-150.102c12.213-13.437,29.997-33.388,53.343-60.123l11.664-8.548l21.715,35.012c-1.22,1.087-3.794,3.258-8.412,6.785
		c-14.522,18.866-21.715,33.934-21.715,45.06c0,14.386,11.673,33.252,35.018,56.592l290.299,291.931l290.161-291.931
		c23.348-23.34,35.012-42.477,35.012-56.592c0-11.126-7.322-26.193-21.578-45.06c-2.309-2.305-5.02-4.476-8.549-6.785l21.715-35.012
		l10.043,8.548c13.303,15.338,31.078,35.559,53.342,60.123l151.729,150.102c13.432,12.218,32.846,30.675,58.355,55.101l10.041,8.418
		l-35.01,23.479c-1.09-1.225-3.262-4.48-6.65-9.909c-19.004-14.522-34.469-21.715-46.691-21.715
		c-14.514,0-33.379,11.672-56.725,35.018l-290.162,291.925l-165.168,165.17L835.719,1219.479z"/>
</g>
</svg>
