<?xml version="1.0" encoding="utf-8"?>
<!-- Generator: Adobe Illustrator 16.0.0, SVG Export Plug-In . SVG Version: 6.00 Build 0)  -->
<!DOCTYPE svg PUBLIC "-//W3C//DTD SVG 1.1//EN" "http://www.w3.org/Graphics/SVG/1.1/DTD/svg11.dtd">
<svg version="1.1" id="Layer_1" xmlns="http://www.w3.org/2000/svg" xmlns:xlink="http://www.w3.org/1999/xlink" x="0px" y="0px"
	 width="2000.035px" height="276.517px" viewBox="0 768.333 2000.035 276.517" enable-background="new 0 768.333 2000.035 276.517"
	 xml:space="preserve">
<path fill="#333333" d="M0,1044.824c0,0,223.129-132.256,493.116,0c71.996-86.733,195.217-307.825,478.476-29.824
	c79.496-74.734,224.988-78.433,377.98,29.824c44.095-118.491,257.428-168.491,348.526-17.157
	c49.999-82.667,192.901-268.666,301.9,17.157H0z"/>
<path fill="#333333" d="M1519.245,791.762c0.01,0.094,0.016,0.188,0.016,0.281c0,1.426-1.155,2.581-2.581,2.581
	c-1.425,0-2.58-1.155-2.58-2.581c0-1.423,1.152-2.577,2.575-2.58l2.753-21.13h-20.154l2.584,21.11c0,0,0.003-0.001,0.005-0.001
	c1.425,0,2.579,1.154,2.579,2.581c0,1.425-1.154,2.58-2.579,2.58c-1.427,0-2.581-1.155-2.581-2.58c0-0.089,0.005-0.177,0.014-0.262
	l-21.148-2.319v20.056l21.152-2.352c-0.011-0.097-0.018-0.192-0.018-0.291c0-1.426,1.154-2.58,2.581-2.58
	c1.425,0,2.58,1.154,2.58,2.58s-1.155,2.58-2.58,2.58c-0.002,0-0.004,0-0.005,0l-2.583,59.37h20.153l-2.753-59.37
	c-1.423-0.003-2.575-1.156-2.575-2.58c0-1.426,1.155-2.58,2.58-2.58c1.427,0,2.581,1.154,2.581,2.58
	c0,0.108-0.009,0.217-0.021,0.321l21.146,2.32v-20.056L1519.245,791.762z"/>
<path fill="#333333" d="M1509.266,824.452c-14.628,0-26.527-11.9-26.527-26.529c0-14.627,11.899-26.528,26.527-26.528
	s26.528,11.901,26.528,26.528C1535.794,812.551,1523.895,824.452,1509.266,824.452z M1509.266,778.803
	c-10.542,0-19.119,8.577-19.119,19.119c0,10.543,8.577,19.119,19.119,19.119s19.119-8.576,19.119-19.119
	C1528.385,787.38,1519.808,778.803,1509.266,778.803z"/>
<rect x="316.176" y="931.587" transform="matrix(0.1733 -0.9849 0.9849 0.1733 -718.646 1146.6207)" fill="#333333" width="15.059" height="139.625"/>
<polygon fill="#333333" points="282.047,994.09 293.466,883.75 351.58,843.438 392.446,901.072 365.475,1008.779 "/>
<polygon fill="#333333" points="41.303,1020.954 20.702,919.286 50.644,863.887 102.864,898.949 131.86,998.65 "/>
<polygon fill="#333333" points="530.856,1006.318 499.317,973.541 534.569,925.819 585.797,890.328 617.336,923.105 "/>
<rect x="560.702" y="877.712" transform="matrix(-0.6933 -0.7207 0.7207 -0.6933 272.9658 2037.3212)" fill="#333333" width="18.671" height="165.719"/>
<polygon fill="#333333" points="191.427,1000 187.389,912.316 148.023,914.129 147.057,893.151 186.423,891.339 184.745,854.912 
	205.722,853.945 207.4,890.373 246.769,888.56 247.715,909.118 208.347,910.93 212.404,999.034 "/>
<path fill="#333333" d="M199.132,939.032c-20.707,0.954-38.329-15.117-39.282-35.823c-0.954-20.707,15.117-38.328,35.823-39.282
	c20.706-0.953,38.328,15.117,39.281,35.823C235.908,920.456,219.838,938.078,199.132,939.032z M196.156,874.415
	c-14.923,0.688-26.505,13.387-25.818,28.311c0.687,14.923,13.387,26.505,28.311,25.817c14.923-0.688,26.504-13.387,25.817-28.311
	C223.779,885.31,211.079,873.729,196.156,874.415z"/>
<rect x="72.464" y="936.511" transform="matrix(-0.2392 -0.971 0.971 -0.2392 -870.8743 1330.1538)" fill="#333333" width="26.437" height="139.505"/>
<rect x="416.451" y="1004.092" transform="matrix(-0.8145 -0.5802 0.5802 -0.8145 205.6284 2104.2881)" fill="#333333" width="45.566" height="30.355"/>
<path fill="#333333" d="M429.476,993.664c0,0,12.673-5.523,29.282-1.839c8.279,14.044,7.83,28.274,7.83,28.274L429.476,993.664z"/>
<rect x="1456.51" y="928.676" fill="#333333" width="105.512" height="21.339"/>
<polygon fill="#333333" points="1464.216,928.676 1469.551,895.184 1549.277,895.184 1554.314,928.676 "/>
<polygon fill="#333333" points="1477.849,895.184 1480.517,865.843 1487.63,858.137 1531.494,858.137 1538.423,865.645 
	1541.176,895.184 "/>
<rect x="725.772" y="817.348" transform="matrix(-0.971 -0.2391 0.2391 -0.971 1311.891 1911.8461)" fill="#333333" width="92.267" height="118.009"/>
<circle fill="#333333" cx="786.019" cy="819.05" r="46.134"/>
<path fill="#333333" d="M918.587,1011.555l-56.994-51.086c0,0,62.255-59.329,65.337-72.894l56.993,51.086
	C970.48,942.426,918.587,1011.555,918.587,1011.555z"/>
<path fill="#333333" d="M976.431,931.944c1.275-1.423,2.864-2.397,4.569-2.913c5.465-12.037,2.795-26.71-7.569-36
	c-10.171-9.117-24.689-10.302-35.973-3.969c-0.207,2.047-1.039,4.047-2.516,5.694c-2.002,2.233-4.776,3.361-7.558,3.344
	c-9.121,12.726-7.386,30.544,4.541,41.235c12.084,10.832,30.303,10.465,41.942-0.4C973.8,936.453,974.642,933.94,976.431,931.944z"
	/>
<rect x="1027.309" y="947.529" transform="matrix(-0.9588 0.284 -0.284 -0.9588 2362.3669 1641.7119)" fill="#333333" width="69.72" height="89.169"/>
<circle fill="#333333" cx="1050.632" cy="953.198" r="28.322"/>
<rect x="1093.889" y="911.329" fill="#333333" width="62.562" height="80.014"/>
<path fill="#333333" d="M1093.889,911.329c0,0,9.771-31.239,31.28-48.728c20.446,17.488,31.28,48.728,31.28,48.728H1093.889z"/>
<polygon fill="#333333" points="1204.576,952.86 1212.336,891.812 1184.929,888.328 1186.785,873.723 1214.192,877.207 
	1217.417,851.846 1232.021,853.702 1228.797,879.062 1256.207,882.548 1254.388,896.861 1226.979,893.377 1219.18,954.716 "/>
<path fill="#333333" d="M1217.232,911.677c-14.416-1.833-24.654-15.052-22.821-29.469c1.832-14.417,15.052-24.654,29.469-22.822
	c14.416,1.833,24.653,15.054,22.821,29.47S1231.648,913.51,1217.232,911.677z M1222.951,866.689
	c-10.391-1.321-19.917,6.057-21.237,16.446c-1.321,10.391,6.059,19.917,16.447,21.238s19.917-6.057,21.237-16.447
	C1240.72,877.537,1233.341,868.01,1222.951,866.689z"/>
<polygon fill="#333333" points="1147.757,989.511 1157.511,952.265 1171.946,943.992 1253.175,954.317 1264.771,965.64 
	1265.025,1004.418 "/>
<rect x="1566.509" y="884.66" fill="#333333" width="67.708" height="86.597"/>
<ellipse fill="#333333" cx="1600.363" cy="884.66" rx="33.854" ry="6.332"/>
<rect x="1587.656" y="809.218" fill="#333333" width="25.413" height="24.999"/>
<polygon fill="#333333" points="1593.628,884.66 1593.628,828.365 1568.354,831.329 1568.354,812.069 1593.628,814.896 
	1591.343,791.509 1609.256,791.509 1607.096,814.896 1632.371,811.935 1632.371,831.329 1607.096,828.095 1607.096,884.66 "/>
<path fill="#333333" d="M1600.363,845.827c-13.294,0-24.11-10.815-24.11-24.109s10.816-24.109,24.11-24.109
	s24.107,10.815,24.107,24.109S1613.657,845.827,1600.363,845.827z M1600.363,804.342c-9.582,0-17.377,7.794-17.377,17.375
	s7.795,17.375,17.377,17.375c9.58,0,17.375-7.795,17.375-17.375C1617.738,812.136,1609.943,804.342,1600.363,804.342z"/>
<rect x="1590.882" y="812.391" fill="#333333" width="18.961" height="18.653"/>
<rect x="1687.785" y="927.276" transform="matrix(-0.6571 0.7538 -0.7538 -0.6571 3566.9993 301.4138)" fill="#333333" width="54.318" height="69.471"/>
<circle fill="#333333" cx="1691.086" cy="941.227" r="22.065"/>
<rect x="1733.151" y="879.319" transform="matrix(-0.7472 0.6646 -0.6646 -0.7472 3687.4307 435.7991)" fill="#333333" width="55.36" height="79.773"/>
<ellipse transform="matrix(-0.6646 -0.7472 0.7472 -0.6646 2222.3831 2776.4243)" fill="#333333" cx="1734.328" cy="889.424" rx="31.188" ry="27.679"/>
<rect x="1860.519" y="863.935" transform="matrix(-0.0022 -1 1 -0.0022 978.5405 2772.897)" fill="#333333" width="24.271" height="68.651"/>
<polygon fill="#333333" points="1843.268,886.159 1846.657,848.059 1898.531,847.948 1901.89,886.033 "/>
<polygon fill="#333333" points="1852.058,848.047 1853.722,814.67 1858.33,805.896 1886.871,805.835 1891.396,814.366 
	1893.26,847.959 "/>
<rect x="1948.231" y="907.429" transform="matrix(0.8517 -0.524 0.524 0.8517 -210.1177 1170.1495)" fill="#333333" width="28.285" height="97.768"/>
<polygon fill="#333333" points="2000,990.511 1948.9,907.458 1992,936.5 "/>
</svg>
