<?xml version="1.0" encoding="utf-8"?>
<!-- Generator: Adobe Illustrator 16.0.0, SVG Export Plug-In . SVG Version: 6.00 Build 0)  -->
<!DOCTYPE svg PUBLIC "-//W3C//DTD SVG 1.1//EN" "http://www.w3.org/Graphics/SVG/1.1/DTD/svg11.dtd">
<svg version="1.1" id="Layer_1" xmlns="http://www.w3.org/2000/svg" xmlns:xlink="http://www.w3.org/1999/xlink" x="0px" y="0px"
	 width="48.788px" height="93.339px" viewBox="0 0 48.788 93.339" enable-background="new 0 0 48.788 93.339" xml:space="preserve">
<g>
	<path fill="#BB3535" d="M5.739,40.306l26.873-28.992c1.826-1.979,2.739-3.584,2.739-4.808c0-1.039-0.564-2.31-1.695-3.819
		c-0.174-0.282-0.392-0.517-0.652-0.707L33.786,0l0.783,0.99c1.565,1.979,2.958,3.63,4.175,4.949l4.565,4.95
		c1.044,1.036,2.609,2.546,4.696,4.525l0.782,0.99l-1.826,0.707c-0.085-0.095-0.261-0.332-0.521-0.707
		c-1.478-1.227-2.652-1.839-3.522-1.839c-1.129,0-2.608,0.99-4.436,2.97L11.609,46.669l26.873,29.134
		c1.827,1.979,3.307,2.97,4.436,2.97c0.87,0,2.045-0.614,3.522-1.838c0.175-0.283,0.349-0.52,0.521-0.707l1.826,0.707l-0.782,0.989
		c-1.217,1.132-2.782,2.639-4.696,4.525l-4.565,4.95c-1.217,1.318-2.609,2.97-4.175,4.949l-0.783,0.99l-0.782-1.98
		c0.088-0.094,0.306-0.33,0.652-0.707c1.131-1.509,1.695-2.781,1.695-3.818c0-1.227-0.913-2.828-2.739-4.808L5.739,53.034L0,46.669
		L5.739,40.306z M0,46.669"/>
</g>
</svg>
