<?xml version="1.0" encoding="utf-8"?>
<!-- Generator: Adobe Illustrator 16.0.0, SVG Export Plug-In . SVG Version: 6.00 Build 0)  -->
<!DOCTYPE svg PUBLIC "-//W3C//DTD SVG 1.1//EN" "http://www.w3.org/Graphics/SVG/1.1/DTD/svg11.dtd">
<svg version="1.1" id="Layer_1" xmlns="http://www.w3.org/2000/svg" xmlns:xlink="http://www.w3.org/1999/xlink" x="0px" y="0px"
	 width="5.511px" height="8.651px" viewBox="178.866 -36.902 5.511 8.651" enable-background="new 178.866 -36.902 5.511 8.651"
	 xml:space="preserve">
<g>
	<path fill="#BC3435" d="M180.055-33.758l2.101-2.088c0.168-0.168,0.252-0.309,0.252-0.42c0-0.08-0.052-0.185-0.156-0.312
		l-0.072-0.071l0.169-0.252l0.061,0.084c0.096,0.111,0.228,0.256,0.396,0.432l1.08,1.068c0.097,0.088,0.24,0.216,0.433,0.384
		l0.061,0.084l-0.252,0.156c-0.008-0.009-0.023-0.028-0.048-0.061c-0.136-0.104-0.244-0.156-0.324-0.156
		c-0.104,0-0.24,0.084-0.408,0.252l-2.1,2.089l2.1,2.088c0.168,0.168,0.306,0.252,0.408,0.252c0.08,0,0.188-0.053,0.324-0.156
		c0.016-0.016,0.032-0.036,0.048-0.061l0.252,0.156l-0.061,0.072c-0.111,0.096-0.256,0.224-0.433,0.384l-1.08,1.092
		c-0.088,0.097-0.22,0.236-0.396,0.42l-0.061,0.072l-0.169-0.252c0.009-0.008,0.032-0.023,0.072-0.048
		c0.104-0.136,0.156-0.248,0.156-0.336c0-0.104-0.084-0.24-0.252-0.408l-2.101-2.088l-1.188-1.188L180.055-33.758z"/>
</g>
</svg>
