<?xml version="1.0" encoding="utf-8"?>
<!-- Generator: Adobe Illustrator 16.0.0, SVG Export Plug-In . SVG Version: 6.00 Build 0)  -->
<!DOCTYPE svg PUBLIC "-//W3C//DTD SVG 1.1//EN" "http://www.w3.org/Graphics/SVG/1.1/DTD/svg11.dtd">
<svg version="1.1" id="Layer_1" xmlns="http://www.w3.org/2000/svg" xmlns:xlink="http://www.w3.org/1999/xlink" x="0px" y="0px"
	 width="326.3px" height="53.306px" viewBox="7 24.952 326.3 53.306" enable-background="new 7 24.952 326.3 53.306"
	 xml:space="preserve">
<g enable-background="new    ">
	<path fill="#A2291F" d="M30.724,36.544l-0.468-0.216v-0.252c-0.072-0.527-0.216-0.888-0.432-1.08
		c-0.216-0.192-0.661-0.288-1.332-0.288h-7.2V51.34c0,0.672,0.09,1.122,0.27,1.351c0.18,0.228,0.534,0.366,1.062,0.413h0.288
		l0.18,0.469h-0.324c-0.192,0-0.492,0-0.9,0c-0.409,0-0.684,0-0.828,0h-1.764c-0.12,0-0.384,0-0.792,0c-0.408,0-0.72,0-0.936,0
		h-0.324l0.216-0.469h0.252c0.528-0.047,0.882-0.186,1.062-0.413c0.18-0.229,0.27-0.679,0.27-1.351V34.708h-7.2
		c-0.672,0-1.116,0.096-1.332,0.288c-0.216,0.192-0.348,0.553-0.396,1.08v0.252l-0.504,0.216V36.22c0-0.216,0.012-0.527,0.036-0.936
		s0.036-0.672,0.036-0.792v-1.8c0-0.145-0.012-0.42-0.036-0.828s-0.036-0.708-0.036-0.9v-0.288l0.504,0.181v0.252
		c0.048,0.527,0.18,0.888,0.396,1.08c0.216,0.192,0.66,0.287,1.332,0.287h16.668c0.671,0,1.116-0.095,1.332-0.287
		c0.216-0.192,0.36-0.553,0.432-1.08v-0.252l0.468-0.181v0.288c0,0.192-0.013,0.492-0.036,0.9c-0.024,0.408-0.036,0.684-0.036,0.828
		v1.8c0,0.12,0.012,0.384,0.036,0.792c0.023,0.408,0.036,0.72,0.036,0.936V36.544z"/>
	<path fill="#A2291F" d="M54.375,53.573h-0.324c-0.192,0-0.492,0-0.9,0c-0.408,0-0.684,0-0.828,0h-1.8c-0.121,0-0.384,0-0.792,0
		c-0.408,0-0.72,0-0.936,0h-0.288l0.18-0.469h0.252c0.528-0.047,0.888-0.186,1.08-0.413c0.192-0.229,0.288-0.679,0.288-1.351V43.6
		h-9v7.74c0,0.672,0.095,1.122,0.288,1.351c0.192,0.228,0.552,0.366,1.08,0.413h0.252l0.216,0.469h-0.324c-0.192,0-0.492,0-0.9,0
		c-0.408,0-0.684,0-0.828,0h-1.8c-0.121,0-0.384,0-0.792,0c-0.409,0-0.72,0-0.936,0h-0.288l0.18-0.469h0.252
		c0.527-0.047,0.888-0.186,1.08-0.413c0.191-0.229,0.288-0.679,0.288-1.351V34.636c0-0.671-0.096-1.121-0.288-1.35
		c-0.192-0.228-0.553-0.366-1.08-0.414h-0.252l-0.18-0.468h0.288c0.216,0,0.527,0,0.936,0c0.408,0,0.671,0,0.792,0h1.8
		c0.144,0,0.42,0,0.828,0c0.408,0,0.708,0,0.9,0h0.324l-0.216,0.468h-0.252c-0.528,0.048-0.888,0.187-1.08,0.414
		c-0.192,0.229-0.288,0.679-0.288,1.35v6.984h9v-6.984c0-0.671-0.096-1.121-0.288-1.35c-0.192-0.228-0.552-0.366-1.08-0.414h-0.252
		l-0.18-0.468h0.288c0.216,0,0.528,0,0.936,0c0.408,0,0.671,0,0.792,0h1.8c0.144,0,0.42,0,0.828,0c0.408,0,0.708,0,0.9,0h0.324
		l-0.216,0.468h-0.252c-0.528,0.048-0.888,0.187-1.08,0.414c-0.192,0.229-0.288,0.679-0.288,1.35V51.34
		c0,0.672,0.096,1.122,0.288,1.351c0.191,0.228,0.552,0.366,1.08,0.413h0.252L54.375,53.573z"/>
	<path fill="#A2291F" d="M76.659,55.3l-0.504-0.18v-0.252c-0.048-0.528-0.18-0.889-0.396-1.08c-0.216-0.192-0.672-0.288-1.368-0.288
		h-6.984l-2.016,2.016v-12.06c-0.504,0.024-0.84,0.132-1.008,0.324c-0.168,0.192-0.288,0.528-0.36,1.008v0.288l-0.468,0.18v-0.324
		c0-0.216,0.012-0.527,0.036-0.936c0.023-0.408,0.036-0.672,0.036-0.792v-1.764c0-0.145-0.013-0.42-0.036-0.828
		c-0.024-0.408-0.036-0.708-0.036-0.9v-0.324l0.468,0.216v0.253c0.072,0.479,0.192,0.815,0.36,1.008
		c0.167,0.192,0.504,0.3,1.008,0.324v-8.713h9c0.696,0,1.152-0.095,1.368-0.287s0.348-0.553,0.396-1.08v-0.252l0.504-0.181v0.288
		c0,0.192-0.018,0.492-0.054,0.9c-0.036,0.408-0.054,0.684-0.054,0.828v1.8c0,0.12,0.018,0.384,0.054,0.792
		c0.036,0.408,0.054,0.72,0.054,0.936v0.324l-0.504-0.216v-0.252c-0.048-0.527-0.18-0.888-0.396-1.08s-0.672-0.288-1.368-0.288
		h-6.768v6.48h6.624c0.671,0,1.116-0.091,1.332-0.271c0.216-0.18,0.348-0.534,0.396-1.062v-0.253l0.504-0.216v0.324
		c0,0.192-0.013,0.492-0.036,0.9c-0.024,0.408-0.036,0.684-0.036,0.828v1.764c0,0.12,0.012,0.384,0.036,0.792
		c0.023,0.408,0.036,0.72,0.036,0.936v0.324l-0.504-0.18v-0.288c-0.048-0.527-0.18-0.882-0.396-1.062
		c-0.216-0.18-0.66-0.27-1.332-0.27h-6.624v7.812h6.768c0.696,0,1.152-0.095,1.368-0.287s0.348-0.553,0.396-1.08v-0.252l0.504-0.217
		v0.324c0,0.192-0.018,0.492-0.054,0.9c-0.036,0.408-0.054,0.684-0.054,0.828v1.8c0,0.12,0.018,0.39,0.054,0.81
		c0.036,0.42,0.054,0.726,0.054,0.918V55.3z"/>
	<path fill="#A2291F" d="M118.49,51.844c-2.28,1.465-4.464,2.196-6.552,2.196c-3.048,0-5.652-1.08-7.812-3.24
		c-2.16-2.16-3.24-4.764-3.24-7.812s1.08-5.652,3.24-7.812c2.16-2.16,4.764-3.24,7.812-3.24c2.304,0,4.356,0.625,6.156,1.872V35.5
		c0,0.096,0.018,0.318,0.054,0.666c0.036,0.349,0.054,0.654,0.054,0.918v0.288h-0.576c-0.121-0.768-0.492-1.392-1.116-1.872
		c-1.512-0.864-3.036-1.296-4.572-1.296c-2.4,0-4.464,0.858-6.192,2.574c-1.728,1.716-2.592,3.786-2.592,6.21
		c0,2.4,0.864,4.464,2.592,6.191c1.728,1.729,3.792,2.593,6.192,2.593c1.392,0,2.832-0.408,4.32-1.225v-6.264h-1.98
		c-0.672,0-1.122,0.096-1.35,0.288s-0.366,0.552-0.414,1.08v0.252l-0.468,0.18v-0.288c0-0.216,0.012-0.527,0.036-0.936
		c0.023-0.408,0.036-0.672,0.036-0.792v-0.433l-0.072-1.548h6.444V51.844z"/>
	<path fill="#A2291F" d="M146.138,53.573h-0.288c-0.168,0-0.444,0-0.828,0c-0.384,0-0.684,0-0.9,0c-0.312,0-0.972,0-1.98,0
		l-9.396-9.36h-2.016v7.128c0,0.672,0.095,1.122,0.288,1.351c0.192,0.228,0.552,0.366,1.08,0.413h0.252l0.216,0.469h-0.324
		c-0.192,0-0.492,0-0.9,0c-0.408,0-0.684,0-0.828,0h-1.8c-0.121,0-0.384,0-0.792,0c-0.409,0-0.72,0-0.936,0h-0.288l0.18-0.469h0.252
		c0.527-0.047,0.888-0.186,1.08-0.413c0.191-0.229,0.288-0.679,0.288-1.351V34.636c0-0.671-0.096-1.121-0.288-1.35
		c-0.192-0.228-0.553-0.366-1.08-0.414h-0.252l-0.18-0.468h0.288c0.216,0,0.527,0,0.936,0c0.408,0,0.671,0,0.792,0h4.932
		c1.728,0,3.186,0.536,4.374,1.607c1.188,1.072,1.782,2.451,1.782,4.137c0,1.252-0.378,2.414-1.134,3.485
		c-0.756,1.072-1.771,1.825-3.042,2.258l7.452,7.442c0.744,0.747,1.26,1.217,1.548,1.409c0.288,0.192,0.648,0.313,1.08,0.36
		c0.072,0.024,0.156,0.024,0.252,0L146.138,53.573z M137.57,38.199c0-1.09-0.366-1.998-1.098-2.725
		c-0.732-0.728-1.722-1.091-2.97-1.091h-2.772v7.812h2.772c1.2,0,2.178-0.382,2.934-1.145
		C137.192,40.288,137.57,39.338,137.57,38.199z"/>
	<path fill="#A2291F" d="M172.705,52.924l-0.287,0.145c-0.408,0.144-0.949,0.359-1.62,0.647l-1.584,0.756
		c-0.337,0.192-0.853,0.469-1.548,0.828l-0.288,0.145l-0.036-0.576c0.048-0.024,0.132-0.061,0.252-0.108
		c0.527-0.312,0.792-0.647,0.792-1.008c0-0.264-0.108-0.648-0.323-1.152l-0.828-1.836h-13.033l-0.828,1.836
		c-0.216,0.504-0.324,0.889-0.324,1.152c0,0.36,0.264,0.696,0.792,1.008c0.072,0.048,0.156,0.084,0.252,0.108l-0.036,0.576
		l-0.288-0.145c-0.384-0.216-0.9-0.492-1.548-0.828l-1.584-0.756c-0.36-0.12-0.9-0.336-1.62-0.647l-0.288-0.145l0.396-0.359
		l0.216,0.144c0.336,0.096,0.588,0.144,0.756,0.144c0.456,0,0.864-0.396,1.224-1.188l9.396-20.34l9.396,20.34
		c0.36,0.792,0.768,1.188,1.225,1.188c0.168,0,0.42-0.048,0.756-0.144l0.216-0.144L172.705,52.924z M166.369,48.821l-5.651-12.744
		l-5.652,12.744H166.369z"/>
	<path fill="#A2291F" d="M201.433,32.405l-0.216,0.468h-0.252c-0.504,0.048-0.888,0.192-1.151,0.432
		c-0.266,0.24-0.564,0.685-0.9,1.332L188.545,54.58l-10.368-19.944c-0.336-0.647-0.637-1.092-0.9-1.332
		c-0.264-0.239-0.647-0.384-1.151-0.432h-0.253l-0.215-0.468h0.324c0.215,0,0.527,0,0.936,0s0.672,0,0.792,0h1.764
		c0.144,0,0.42,0,0.828,0c0.407,0,0.708,0,0.899,0h0.324l-0.18,0.468h-0.288c-0.575,0.072-0.864,0.265-0.864,0.576
		c0,0.24,0.145,0.636,0.433,1.188l7.92,15.192l7.92-15.192c0.288-0.527,0.433-0.911,0.433-1.151c0-0.336-0.289-0.54-0.865-0.612
		h-0.287l-0.18-0.468h0.323c0.216,0,0.528,0,0.937,0c0.407,0,0.672,0,0.791,0h1.765c0.144,0,0.419,0,0.828,0
		c0.407,0,0.708,0,0.899,0H201.433z"/>
	<path fill="#A2291F" d="M221.269,55.3l-0.504-0.18v-0.252c-0.049-0.528-0.18-0.889-0.396-1.08
		c-0.215-0.192-0.672-0.288-1.367-0.288h-6.984l-2.016,2.016v-12.06c-0.504,0.024-0.841,0.132-1.008,0.324
		c-0.168,0.192-0.289,0.528-0.36,1.008v0.288l-0.468,0.18v-0.324c0-0.216,0.012-0.527,0.035-0.936s0.037-0.672,0.037-0.792v-1.764
		c0-0.145-0.014-0.42-0.037-0.828s-0.035-0.708-0.035-0.9v-0.324l0.468,0.216v0.253c0.071,0.479,0.192,0.815,0.36,1.008
		c0.167,0.192,0.504,0.3,1.008,0.324v-8.713h9c0.695,0,1.152-0.095,1.367-0.287c0.217-0.192,0.348-0.553,0.396-1.08v-0.252
		l0.504-0.181v0.288c0,0.192-0.018,0.492-0.054,0.9s-0.054,0.684-0.054,0.828v1.8c0,0.12,0.018,0.384,0.054,0.792
		s0.054,0.72,0.054,0.936v0.324l-0.504-0.216v-0.252c-0.049-0.527-0.18-0.888-0.396-1.08c-0.215-0.192-0.672-0.288-1.367-0.288
		h-6.768v6.48h6.623c0.672,0,1.116-0.091,1.332-0.271c0.217-0.18,0.348-0.534,0.396-1.062v-0.253l0.504-0.216v0.324
		c0,0.192-0.013,0.492-0.036,0.9c-0.024,0.408-0.036,0.684-0.036,0.828v1.764c0,0.12,0.012,0.384,0.036,0.792
		c0.023,0.408,0.036,0.72,0.036,0.936v0.324l-0.504-0.18v-0.288c-0.049-0.527-0.18-0.882-0.396-1.062
		c-0.216-0.18-0.66-0.27-1.332-0.27h-6.623v7.812h6.768c0.695,0,1.152-0.095,1.367-0.287c0.217-0.192,0.348-0.553,0.396-1.08v-0.252
		l0.504-0.217v0.324c0,0.192-0.018,0.492-0.054,0.9s-0.054,0.684-0.054,0.828v1.8c0,0.12,0.018,0.39,0.054,0.81
		s0.054,0.726,0.054,0.918V55.3z"/>
	<path fill="#A2291F" d="M252.625,35.284l-0.468,0.18c-0.024-0.023-0.085-0.084-0.181-0.18c-0.408-0.312-0.732-0.468-0.971-0.468
		c-0.312,0-0.721,0.252-1.225,0.756l-7.885,7.92v7.848c0,0.672,0.096,1.122,0.289,1.351c0.191,0.228,0.551,0.366,1.08,0.413h0.252
		l0.18,0.469h-0.288c-0.192,0-0.492,0-0.899,0c-0.408,0-0.685,0-0.828,0h-1.801c-0.12,0-0.384,0-0.791,0c-0.409,0-0.721,0-0.937,0
		h-0.324l0.216-0.469h0.252c0.527-0.047,0.889-0.186,1.08-0.413c0.191-0.229,0.288-0.679,0.288-1.351v-7.848l-7.92-7.92
		c-0.504-0.504-0.912-0.756-1.224-0.756c-0.217,0-0.528,0.156-0.936,0.468l-0.181,0.18l-0.504-0.18l0.252-0.252
		c0.144-0.145,0.366-0.348,0.666-0.612c0.3-0.264,0.497-0.443,0.594-0.54l1.261-1.26c0.335-0.336,0.719-0.756,1.151-1.26
		l0.216-0.252l0.217,0.504l-0.181,0.18c-0.312,0.408-0.468,0.732-0.468,0.972c0,0.312,0.252,0.721,0.756,1.225l7.416,7.38l7.38-7.38
		c0.504-0.504,0.756-0.924,0.756-1.261c0-0.239-0.156-0.552-0.468-0.936c-0.049-0.072-0.096-0.132-0.145-0.18l0.181-0.504
		l0.252,0.252c0.288,0.312,0.671,0.732,1.151,1.26l1.261,1.26c0.288,0.24,0.708,0.624,1.26,1.152L252.625,35.284z"/>
	<path fill="#A2291F" d="M280.453,52.924l-0.287,0.145c-0.409,0.144-0.949,0.359-1.621,0.647l-1.584,0.756
		c-0.336,0.192-0.852,0.469-1.547,0.828l-0.289,0.145l-0.035-0.576c0.047-0.024,0.131-0.061,0.252-0.108
		c0.527-0.312,0.791-0.647,0.791-1.008c0-0.264-0.107-0.648-0.323-1.152l-0.828-1.836h-13.032l-0.828,1.836
		c-0.216,0.504-0.324,0.889-0.324,1.152c0,0.36,0.264,0.696,0.793,1.008c0.071,0.048,0.155,0.084,0.252,0.108l-0.037,0.576
		l-0.287-0.145c-0.385-0.216-0.9-0.492-1.549-0.828l-1.584-0.756c-0.359-0.12-0.899-0.336-1.619-0.647l-0.288-0.145l0.396-0.359
		l0.217,0.144c0.336,0.096,0.588,0.144,0.756,0.144c0.455,0,0.863-0.396,1.224-1.188l9.396-20.34l9.396,20.34
		c0.359,0.792,0.768,1.188,1.225,1.188c0.167,0,0.419-0.048,0.756-0.144l0.215-0.144L280.453,52.924z M274.117,48.821l-5.652-12.744
		l-5.651,12.744H274.117z"/>
	<path fill="#A2291F" d="M305.365,53.573h-0.288c-0.168,0-0.444,0-0.827,0c-0.385,0-0.685,0-0.9,0c-0.312,0-0.973,0-1.98,0
		l-9.396-9.36h-2.016v7.128c0,0.672,0.096,1.122,0.288,1.351c0.192,0.228,0.552,0.366,1.08,0.413h0.252l0.216,0.469h-0.324
		c-0.191,0-0.492,0-0.899,0c-0.408,0-0.685,0-0.828,0h-1.8c-0.121,0-0.385,0-0.792,0c-0.409,0-0.72,0-0.937,0h-0.287l0.18-0.469
		h0.252c0.527-0.047,0.888-0.186,1.08-0.413c0.191-0.229,0.287-0.679,0.287-1.351V34.636c0-0.671-0.096-1.121-0.287-1.35
		c-0.192-0.228-0.553-0.366-1.08-0.414h-0.252l-0.18-0.468h0.287c0.217,0,0.527,0,0.937,0c0.407,0,0.671,0,0.792,0h4.932
		c1.729,0,3.187,0.536,4.375,1.607c1.188,1.072,1.781,2.451,1.781,4.137c0,1.252-0.378,2.414-1.134,3.485
		c-0.757,1.072-1.771,1.825-3.042,2.258l7.451,7.442c0.744,0.747,1.261,1.217,1.549,1.409c0.287,0.192,0.648,0.313,1.08,0.36
		c0.072,0.024,0.156,0.024,0.252,0L305.365,53.573z M296.796,38.199c0-1.09-0.365-1.998-1.098-2.725
		c-0.732-0.728-1.723-1.091-2.97-1.091h-2.772v7.812h2.772c1.2,0,2.178-0.382,2.935-1.145
		C296.419,40.288,296.796,39.338,296.796,38.199z"/>
	<path fill="#A2291F" d="M329.304,42.916c0,3-1.044,5.521-3.132,7.56c-2.088,2.041-4.644,3.061-7.668,3.061
		c-0.528,0-1.224,0-2.088,0s-1.32,0-1.368,0h-2.592c-0.121,0-0.385,0-0.792,0c-0.409,0-0.72,0-0.937,0h-0.287l0.18-0.433h0.252
		c0.527-0.047,0.887-0.186,1.08-0.413c0.191-0.229,0.287-0.679,0.287-1.351V34.636c0-0.671-0.096-1.121-0.287-1.35
		c-0.193-0.228-0.553-0.366-1.08-0.414h-0.252l-0.18-0.468h0.287c0.217,0,0.527,0,0.937,0c0.407,0,0.671,0,0.792,0h2.16
		c0.287,0,0.852,0,1.691,0s1.572,0,2.196,0c2.976,0,5.52,1.014,7.632,3.042C328.248,37.475,329.304,39.964,329.304,42.916z
		 M327.037,43.025c0-2.353-0.822-4.362-2.467-6.03c-1.644-1.668-3.63-2.502-5.957-2.502h-4.068v16.992h4.068
		c2.327,0,4.313-0.828,5.957-2.484C326.214,47.344,327.037,45.353,327.037,43.025z"/>
</g>
<g enable-background="new    ">
	<path fill="#A2291F" d="M145.094,72.561c0,0.681-0.262,1.238-0.784,1.673c-0.523,0.434-1.148,0.65-1.876,0.65
		c-0.756,0-1.372-0.256-1.848-0.77c-0.317-0.346-0.513-0.705-0.588-1.078l1.148-0.504l0.084,0.14
		c-0.196,0.122-0.294,0.248-0.294,0.378c0,0.188,0.13,0.393,0.392,0.616c0.317,0.28,0.7,0.42,1.148,0.42
		c0.522,0,0.945-0.149,1.267-0.448c0.322-0.298,0.483-0.662,0.483-1.092c0-0.504-0.401-0.975-1.204-1.414l-1.288-0.699
		c-0.542-0.299-0.919-0.611-1.134-0.938c-0.178-0.28-0.266-0.625-0.266-1.036c0-0.588,0.219-1.073,0.658-1.456
		c0.438-0.383,0.957-0.574,1.554-0.574c1.045,0,1.801,0.453,2.268,1.358l-0.952,0.854l-0.112-0.183
		c0.149-0.14,0.224-0.271,0.224-0.392c0-0.205-0.138-0.399-0.413-0.581c-0.275-0.183-0.586-0.273-0.931-0.273
		c-0.476,0-0.84,0.131-1.092,0.393c-0.233,0.224-0.35,0.509-0.35,0.854c0,0.448,0.35,0.859,1.05,1.232l1.512,0.812
		C144.646,70.988,145.094,71.674,145.094,72.561z"/>
	<path fill="#A2291F" d="M150.68,74.731h-0.112c-0.075,0-0.191,0-0.35,0c-0.159,0-0.266,0-0.322,0h-0.742c-0.047,0-0.149,0-0.308,0
		s-0.28,0-0.364,0h-0.126l0.084-0.183h0.098c0.205-0.019,0.343-0.072,0.413-0.161c0.07-0.088,0.105-0.263,0.105-0.524v-6.496
		c0-0.262-0.035-0.437-0.105-0.525c-0.07-0.088-0.208-0.142-0.413-0.161h-0.098l-0.084-0.182h0.126c0.084,0,0.206,0,0.364,0
		s0.261,0,0.308,0h0.742c0.056,0,0.163,0,0.322,0c0.159,0,0.275,0,0.35,0h0.112l-0.07,0.182h-0.098
		c-0.206,0.02-0.346,0.073-0.42,0.161c-0.075,0.089-0.112,0.264-0.112,0.525v6.496c0,0.262,0.037,0.437,0.112,0.524
		c0.074,0.089,0.214,0.143,0.42,0.161h0.098L150.68,74.731z"/>
	<path fill="#A2291F" d="M160.717,68.43h-0.224c-0.047-0.298-0.191-0.541-0.434-0.728c-0.588-0.336-1.181-0.504-1.778-0.504
		c-0.934,0-1.736,0.334-2.408,1.001s-1.008,1.473-1.008,2.415c0,0.934,0.336,1.736,1.008,2.408s1.475,1.008,2.408,1.008
		c0.616,0,1.241-0.196,1.876-0.588c0.187-0.205,0.303-0.438,0.35-0.7h0.168v0.112c0,0.093-0.007,0.207-0.021,0.343
		c-0.014,0.136-0.021,0.227-0.021,0.272l0.042,0.715c-0.709,0.485-1.507,0.728-2.394,0.728c-1.186,0-2.198-0.42-3.038-1.26
		c-0.84-0.84-1.26-1.853-1.26-3.038s0.42-2.198,1.26-3.038c0.84-0.84,1.853-1.26,3.038-1.26c0.896,0,1.694,0.242,2.394,0.728v0.658
		c0,0.037,0.007,0.124,0.021,0.259c0.014,0.136,0.021,0.255,0.021,0.357V68.43z"/>
	<path fill="#A2291F" d="M170.448,74.731h-0.126c-0.057,0-0.159,0-0.309,0c-0.148,0-0.271,0-0.363,0c-0.112,0-0.364,0-0.756,0
		l-3.683-3.654v2.786c0,0.262,0.037,0.437,0.112,0.524c0.074,0.089,0.215,0.143,0.42,0.161h0.098l0.084,0.183h-0.126
		c-0.075,0-0.191,0-0.35,0c-0.159,0-0.267,0-0.322,0h-0.7c-0.047,0-0.148,0-0.308,0s-0.28,0-0.364,0h-0.112l0.07-0.183h0.099
		c0.205-0.019,0.345-0.072,0.42-0.161c0.074-0.088,0.111-0.263,0.111-0.524v-6.496c0-0.262-0.037-0.437-0.111-0.525
		c-0.075-0.088-0.215-0.142-0.42-0.161h-0.099l-0.07-0.182h0.112c0.084,0,0.205,0,0.364,0s0.261,0,0.308,0h0.7
		c0.056,0,0.163,0,0.322,0c0.158,0,0.274,0,0.35,0h0.126l-0.084,0.182h-0.098c-0.205,0.02-0.346,0.073-0.42,0.161
		c-0.075,0.089-0.112,0.264-0.112,0.525v1.932l2.101-1.89c0.214-0.196,0.321-0.354,0.321-0.476c0-0.094-0.056-0.22-0.168-0.379
		l-0.069-0.056l0.098-0.196l0.084,0.084c0.103,0.131,0.247,0.309,0.434,0.532l0.393,0.462c0.093,0.084,0.252,0.238,0.476,0.462
		l0.084,0.112l-0.196,0.056l-0.069-0.069c-0.14-0.141-0.262-0.21-0.364-0.21c-0.121,0-0.285,0.093-0.49,0.279l-2.338,2.114
		l3.738,3.738c0.289,0.289,0.49,0.472,0.602,0.546c0.112,0.075,0.252,0.121,0.42,0.14c0.028,0.01,0.061,0.01,0.098,0L170.448,74.731
		z"/>
	<path fill="#A2291F" d="M185.063,74.731h-0.126c-0.074,0-0.191,0-0.35,0c-0.159,0-0.266,0-0.322,0h-0.7c-0.047,0-0.149,0-0.308,0
		c-0.159,0-0.28,0-0.364,0h-0.112l0.07-0.183h0.098c0.205-0.019,0.346-0.072,0.42-0.161c0.075-0.088,0.112-0.263,0.112-0.524v-3.01
		h-3.5v3.01c0,0.262,0.037,0.437,0.112,0.524c0.074,0.089,0.215,0.143,0.42,0.161h0.098l0.084,0.183h-0.126c-0.075,0-0.191,0-0.35,0
		c-0.159,0-0.267,0-0.322,0h-0.7c-0.047,0-0.148,0-0.308,0s-0.28,0-0.364,0h-0.111l0.069-0.183h0.099
		c0.205-0.019,0.345-0.072,0.42-0.161c0.074-0.088,0.111-0.263,0.111-0.524v-6.496c0-0.262-0.037-0.437-0.111-0.525
		c-0.075-0.088-0.215-0.142-0.42-0.161h-0.099l-0.069-0.182h0.111c0.084,0,0.205,0,0.364,0s0.261,0,0.308,0h0.7
		c0.056,0,0.163,0,0.322,0c0.158,0,0.274,0,0.35,0h0.126l-0.084,0.182h-0.098c-0.205,0.02-0.346,0.073-0.42,0.161
		c-0.075,0.089-0.112,0.264-0.112,0.525v2.716h3.5v-2.716c0-0.262-0.037-0.437-0.112-0.525c-0.074-0.088-0.215-0.142-0.42-0.161
		h-0.098l-0.07-0.182h0.112c0.084,0,0.205,0,0.364,0c0.158,0,0.261,0,0.308,0h0.7c0.057,0,0.163,0,0.322,0c0.158,0,0.275,0,0.35,0
		h0.126l-0.084,0.182h-0.099c-0.205,0.02-0.345,0.073-0.42,0.161c-0.074,0.089-0.111,0.264-0.111,0.525v6.496
		c0,0.262,0.037,0.437,0.111,0.524c0.075,0.089,0.215,0.143,0.42,0.161h0.099L185.063,74.731z"/>
	<path fill="#A2291F" d="M196.501,74.479l-0.113,0.056c-0.158,0.056-0.368,0.14-0.629,0.252l-0.616,0.294
		c-0.131,0.074-0.331,0.182-0.603,0.322l-0.111,0.056l-0.014-0.224c0.018-0.01,0.051-0.023,0.098-0.042
		c0.205-0.122,0.308-0.252,0.308-0.393c0-0.103-0.042-0.252-0.126-0.447l-0.322-0.715h-5.068l-0.321,0.715
		c-0.084,0.195-0.126,0.345-0.126,0.447c0,0.141,0.103,0.271,0.309,0.393c0.027,0.019,0.061,0.032,0.098,0.042l-0.014,0.224
		l-0.113-0.056c-0.148-0.084-0.35-0.191-0.602-0.322l-0.615-0.294c-0.141-0.047-0.351-0.131-0.631-0.252l-0.111-0.056l0.154-0.141
		l0.084,0.057c0.13,0.037,0.229,0.056,0.293,0.056c0.178,0,0.336-0.154,0.477-0.462l3.654-7.91l3.653,7.91
		c0.14,0.308,0.299,0.462,0.476,0.462c0.066,0,0.164-0.019,0.295-0.056l0.084-0.057L196.501,74.479z M194.037,72.882l-2.197-4.956
		l-2.199,4.956H194.037z"/>
	<path fill="#A2291F" d="M203.949,75.403l-0.182-0.07v-0.098c-0.02-0.206-0.072-0.346-0.161-0.42
		c-0.089-0.075-0.264-0.112-0.524-0.112h-2.969l-0.783,0.784v-8.12c0-0.262-0.038-0.437-0.113-0.525
		c-0.074-0.088-0.215-0.142-0.42-0.161h-0.098l-0.07-0.182h0.112c0.084,0,0.206,0,0.364,0s0.262,0,0.309,0h0.699
		c0.057,0,0.163,0,0.322,0c0.158,0,0.275,0,0.35,0h0.126l-0.084,0.182h-0.098c-0.206,0.02-0.346,0.073-0.42,0.161
		c-0.075,0.089-0.112,0.264-0.112,0.525v6.468h2.885c0.261,0,0.436-0.037,0.524-0.112c0.089-0.074,0.142-0.214,0.161-0.42v-0.098
		l0.182-0.084v0.126c0,0.075-0.005,0.191-0.014,0.35c-0.01,0.159-0.014,0.267-0.014,0.322v0.7c0,0.047,0.004,0.151,0.014,0.315
		c0.009,0.163,0.014,0.282,0.014,0.356V75.403z"/>
	<path fill="#A2291F" d="M212.013,75.403l-0.182-0.07v-0.098c-0.02-0.206-0.073-0.346-0.162-0.42
		c-0.088-0.075-0.264-0.112-0.524-0.112h-2.968l-0.784,0.784v-8.12c0-0.262-0.038-0.437-0.112-0.525
		c-0.074-0.088-0.215-0.142-0.42-0.161h-0.098l-0.07-0.182h0.111c0.084,0,0.206,0,0.365,0c0.158,0,0.261,0,0.308,0h0.7
		c0.056,0,0.162,0,0.322,0c0.158,0,0.274,0,0.35,0h0.125l-0.084,0.182h-0.098c-0.205,0.02-0.346,0.073-0.42,0.161
		c-0.074,0.089-0.111,0.264-0.111,0.525v6.468h2.884c0.261,0,0.437-0.037,0.524-0.112c0.089-0.074,0.143-0.214,0.162-0.42v-0.098
		l0.182-0.084v0.126c0,0.075-0.006,0.191-0.014,0.35c-0.01,0.159-0.015,0.267-0.015,0.322v0.7c0,0.047,0.005,0.151,0.015,0.315
		c0.008,0.163,0.014,0.282,0.014,0.356V75.403z"/>
	<path fill="#A2291F" d="M223.38,70.615c0,1.186-0.418,2.198-1.252,3.038c-0.836,0.84-1.852,1.26-3.045,1.26
		c-1.186,0-2.199-0.42-3.039-1.26s-1.26-1.853-1.26-3.038s0.42-2.198,1.26-3.038s1.854-1.26,3.039-1.26
		c1.193,0,2.209,0.418,3.045,1.253C222.962,68.405,223.38,69.42,223.38,70.615z M218.705,70.237v-3.038
		c-0.793,0.094-1.475,0.422-2.044,0.987c-0.569,0.564-0.901,1.248-0.993,2.051H218.705z M218.705,74.031v-3.038h-3.037
		c0.092,0.793,0.424,1.475,0.993,2.044S217.912,73.937,218.705,74.031z M222.5,70.237c-0.094-0.803-0.424-1.486-0.988-2.051
		c-0.564-0.565-1.248-0.894-2.051-0.987v3.038H222.5z M222.5,70.992h-3.039v3.038c0.793-0.094,1.475-0.425,2.045-0.994
		C222.074,72.467,222.406,71.785,222.5,70.992z"/>
	<path fill="#A2291F" d="M239.046,66.498l-0.084,0.182h-0.098c-0.309,0.038-0.574,0.267-0.798,0.687l-4.046,7.756l-1.807-3.472
		l-1.82,3.472l-4.031-7.756c-0.225-0.42-0.49-0.648-0.798-0.687h-0.099l-0.084-0.182h0.127c0.084,0,0.205,0,0.363,0s0.262,0,0.309,0
		h0.699c0.057,0,0.164,0,0.322,0s0.275,0,0.35,0h0.127l-0.084,0.182h-0.099c-0.224,0.028-0.336,0.104-0.336,0.225
		c0,0.093,0.056,0.247,0.168,0.462l3.065,5.908l1.33-2.562l-1.735-3.346c-0.224-0.42-0.49-0.648-0.798-0.687h-0.098l-0.07-0.182
		h0.111c0.084,0,0.205,0,0.364,0s0.261,0,0.308,0h0.701c0.055,0,0.162,0,0.321,0s0.275,0,0.351,0h0.125l-0.084,0.182h-0.098
		c-0.224,0.028-0.336,0.104-0.336,0.225c0,0.093,0.057,0.247,0.168,0.462l1.26,2.436l1.274-2.436
		c0.103-0.196,0.153-0.346,0.153-0.448c0-0.131-0.111-0.21-0.336-0.238h-0.098l-0.084-0.182h0.126c0.085,0,0.206,0,0.364,0
		s0.262,0,0.309,0h0.699c0.057,0,0.164,0,0.322,0s0.275,0,0.35,0h0.112l-0.069,0.182h-0.099c-0.308,0.038-0.574,0.267-0.798,0.687
		l-1.75,3.346l1.33,2.562l3.094-5.908c0.103-0.205,0.154-0.354,0.154-0.448c0-0.131-0.112-0.21-0.336-0.238h-0.098l-0.085-0.182
		h0.126c0.084,0,0.205,0,0.364,0s0.261,0,0.308,0h0.7c0.056,0,0.163,0,0.322,0s0.274,0,0.351,0H239.046z"/>
	<path fill="#A2291F" d="M246.648,75.403l-0.195-0.07v-0.098c-0.02-0.206-0.07-0.346-0.154-0.42
		c-0.084-0.075-0.262-0.112-0.532-0.112h-2.716l-0.784,0.784v-4.69c-0.196,0.01-0.327,0.052-0.392,0.126
		c-0.065,0.075-0.112,0.206-0.141,0.393v0.111l-0.182,0.07V71.37c0-0.084,0.005-0.205,0.014-0.364
		c0.01-0.158,0.014-0.261,0.014-0.308v-0.687c0-0.056-0.004-0.163-0.014-0.321c-0.009-0.159-0.014-0.275-0.014-0.351v-0.126
		l0.182,0.084v0.099c0.028,0.187,0.075,0.317,0.141,0.392c0.064,0.075,0.195,0.117,0.392,0.126v-3.388h3.5
		c0.271,0,0.448-0.037,0.532-0.112c0.084-0.074,0.135-0.215,0.154-0.42v-0.098l0.195-0.07v0.112c0,0.074-0.007,0.191-0.021,0.35
		c-0.015,0.159-0.021,0.266-0.021,0.322v0.7c0,0.047,0.006,0.149,0.021,0.308c0.014,0.159,0.021,0.28,0.021,0.364v0.126
		l-0.195-0.084v-0.099c-0.02-0.205-0.07-0.345-0.154-0.42c-0.084-0.074-0.262-0.111-0.532-0.111h-2.632v2.52h2.576
		c0.262,0,0.434-0.035,0.518-0.104c0.084-0.07,0.135-0.208,0.154-0.413v-0.099l0.195-0.084v0.126c0,0.075-0.004,0.191-0.014,0.351
		c-0.01,0.158-0.014,0.266-0.014,0.321v0.687c0,0.047,0.004,0.149,0.014,0.308c0.01,0.159,0.014,0.28,0.014,0.364v0.126l-0.195-0.07
		v-0.111c-0.02-0.205-0.07-0.344-0.154-0.413c-0.084-0.07-0.256-0.105-0.518-0.105h-2.576v3.038h2.632
		c0.271,0,0.448-0.037,0.532-0.112c0.084-0.074,0.135-0.214,0.154-0.42v-0.098l0.195-0.084v0.126c0,0.075-0.007,0.191-0.021,0.35
		c-0.015,0.159-0.021,0.267-0.021,0.322v0.7c0,0.047,0.006,0.151,0.021,0.315c0.014,0.163,0.021,0.282,0.021,0.356V75.403z"/>
	<path fill="#A2291F" d="M255.917,75.403l-0.196-0.07v-0.098c-0.019-0.206-0.07-0.346-0.154-0.42
		c-0.084-0.075-0.261-0.112-0.531-0.112h-2.717l-0.783,0.784v-4.69c-0.196,0.01-0.327,0.052-0.393,0.126
		c-0.064,0.075-0.111,0.206-0.14,0.393v0.111l-0.183,0.07V71.37c0-0.084,0.006-0.205,0.015-0.364
		c0.009-0.158,0.014-0.261,0.014-0.308v-0.687c0-0.056-0.005-0.163-0.014-0.321c-0.009-0.159-0.015-0.275-0.015-0.351v-0.126
		l0.183,0.084v0.099c0.028,0.187,0.075,0.317,0.14,0.392c0.065,0.075,0.196,0.117,0.393,0.126v-3.388h3.5
		c0.271,0,0.447-0.037,0.531-0.112c0.084-0.074,0.136-0.215,0.154-0.42v-0.098l0.196-0.07v0.112c0,0.074-0.007,0.191-0.021,0.35
		c-0.015,0.159-0.021,0.266-0.021,0.322v0.7c0,0.047,0.007,0.149,0.021,0.308c0.014,0.159,0.021,0.28,0.021,0.364v0.126
		l-0.196-0.084v-0.099c-0.019-0.205-0.07-0.345-0.154-0.42c-0.084-0.074-0.261-0.111-0.531-0.111h-2.633v2.52h2.576
		c0.262,0,0.435-0.035,0.519-0.104c0.084-0.07,0.135-0.208,0.153-0.413v-0.099l0.196-0.084v0.126c0,0.075-0.005,0.191-0.014,0.351
		c-0.01,0.158-0.015,0.266-0.015,0.321v0.687c0,0.047,0.005,0.149,0.015,0.308c0.009,0.159,0.014,0.28,0.014,0.364v0.126
		l-0.196-0.07v-0.111c-0.019-0.205-0.069-0.344-0.153-0.413c-0.084-0.07-0.257-0.105-0.519-0.105h-2.576v3.038h2.633
		c0.271,0,0.447-0.037,0.531-0.112c0.084-0.074,0.136-0.214,0.154-0.42v-0.098l0.196-0.084v0.126c0,0.075-0.007,0.191-0.021,0.35
		c-0.015,0.159-0.021,0.267-0.021,0.322v0.7c0,0.047,0.007,0.151,0.021,0.315c0.014,0.163,0.021,0.282,0.021,0.356V75.403z"/>
	<path fill="#A2291F" d="M267.466,74.731h-0.127c-0.074,0-0.191,0-0.35,0s-0.266,0-0.322,0h-0.699c-0.047,0-0.15,0-0.309,0
		s-0.279,0-0.363,0h-0.112l0.069-0.183h0.099c0.205-0.019,0.345-0.072,0.42-0.161c0.075-0.088,0.112-0.263,0.112-0.524v-0.084
		l-4.732-5.04v5.124c0,0.262,0.037,0.437,0.112,0.524c0.074,0.089,0.214,0.143,0.42,0.161h0.098l0.084,0.183h-0.126
		c-0.074,0-0.191,0-0.35,0c-0.159,0-0.266,0-0.322,0h-0.699c-0.047,0-0.15,0-0.309,0s-0.28,0-0.364,0h-0.112l0.07-0.183h0.098
		c0.205-0.019,0.346-0.072,0.42-0.161c0.075-0.088,0.113-0.263,0.113-0.524v-6.496c0-0.262-0.038-0.437-0.113-0.525
		c-0.074-0.088-0.215-0.142-0.42-0.161h-0.098l-0.07-0.182h0.112c0.084,0,0.206,0,0.364,0s0.262,0,0.309,0h0.699
		c0.057,0,0.163,0,0.322,0c0.158,0,0.275,0,0.35,0h0.126l-0.084,0.182h-0.098c-0.206,0.02-0.346,0.073-0.42,0.161
		c-0.075,0.089-0.112,0.264-0.112,0.525v0.112l4.732,5.012v-5.124c0-0.262-0.037-0.437-0.112-0.525
		c-0.075-0.088-0.215-0.142-0.42-0.161h-0.099l-0.069-0.182h0.112c0.084,0,0.205,0,0.363,0s0.262,0,0.309,0h0.699
		c0.057,0,0.164,0,0.322,0s0.275,0,0.35,0h0.127l-0.084,0.182h-0.098c-0.206,0.02-0.346,0.073-0.421,0.161
		c-0.075,0.089-0.112,0.264-0.112,0.525v6.496c0,0.262,0.037,0.437,0.112,0.524c0.075,0.089,0.215,0.143,0.421,0.161h0.098
		L267.466,74.731z"/>
	<path fill="#A2291F" d="M285.764,74.731h-0.112c-0.074,0-0.191,0-0.35,0c-0.159,0-0.266,0-0.322,0h-0.699c-0.047,0-0.15,0-0.309,0
		s-0.28,0-0.364,0h-0.126l0.084-0.183h0.098c0.205-0.019,0.346-0.072,0.42-0.161c0.075-0.088,0.113-0.263,0.113-0.524v-6.468h-2.744
		v6.468c0,0.262,0.035,0.437,0.104,0.524c0.069,0.089,0.208,0.143,0.413,0.161h0.098l0.084,0.183h-0.126c-0.075,0-0.191,0-0.35,0
		c-0.159,0-0.267,0-0.322,0h-0.687c-0.047,0-0.148,0-0.308,0s-0.28,0-0.364,0h-0.125l0.069-0.183h0.112
		c0.205-0.019,0.343-0.072,0.413-0.161c0.069-0.088,0.104-0.263,0.104-0.524v-6.468h-2.744v6.468c0,0.262,0.037,0.437,0.112,0.524
		c0.075,0.089,0.215,0.143,0.42,0.161h0.099l0.084,0.183h-0.127c-0.074,0-0.191,0-0.35,0s-0.266,0-0.322,0h-0.699
		c-0.047,0-0.15,0-0.309,0s-0.279,0-0.363,0h-0.127l0.084-0.183h0.099c0.205-0.019,0.345-0.072,0.42-0.161
		c0.075-0.088,0.112-0.263,0.112-0.524v-6.496c0-0.262-0.037-0.437-0.112-0.525c-0.075-0.088-0.215-0.142-0.42-0.161h-0.099
		l-0.084-0.182h0.127c0.084,0,0.205,0,0.363,0s0.262,0,0.309,0h3.527c-0.01-0.204-0.051-0.342-0.125-0.413
		c-0.076-0.07-0.206-0.115-0.393-0.133h-0.112l-0.069-0.182h0.125c0.084,0,0.205,0,0.364,0s0.261,0,0.308,0h0.687
		c0.056,0,0.163,0,0.322,0c0.158,0,0.274,0,0.35,0h0.126l-0.084,0.182h-0.098c-0.188,0.018-0.317,0.062-0.393,0.133
		c-0.074,0.071-0.116,0.209-0.125,0.413h3.527c0.057,0,0.163,0,0.322,0c0.158,0,0.275,0,0.35,0h0.112l-0.069,0.182h-0.099
		c-0.206,0.02-0.346,0.073-0.42,0.161c-0.075,0.089-0.112,0.264-0.112,0.525v6.496c0,0.262,0.037,0.437,0.112,0.524
		c0.074,0.089,0.214,0.143,0.42,0.161h0.099L285.764,74.731z"/>
	<path fill="#A2291F" d="M294.444,75.403l-0.196-0.07v-0.098c-0.019-0.206-0.07-0.346-0.154-0.42
		c-0.084-0.075-0.261-0.112-0.531-0.112h-2.717l-0.783,0.784v-4.69c-0.196,0.01-0.327,0.052-0.393,0.126
		c-0.064,0.075-0.111,0.206-0.14,0.393v0.111l-0.183,0.07V71.37c0-0.084,0.006-0.205,0.015-0.364
		c0.009-0.158,0.014-0.261,0.014-0.308v-0.687c0-0.056-0.005-0.163-0.014-0.321c-0.009-0.159-0.015-0.275-0.015-0.351v-0.126
		l0.183,0.084v0.099c0.028,0.187,0.075,0.317,0.14,0.392c0.065,0.075,0.196,0.117,0.393,0.126v-3.388h3.5
		c0.271,0,0.447-0.037,0.531-0.112c0.084-0.074,0.136-0.215,0.154-0.42v-0.098l0.196-0.07v0.112c0,0.074-0.007,0.191-0.021,0.35
		c-0.015,0.159-0.021,0.266-0.021,0.322v0.7c0,0.047,0.007,0.149,0.021,0.308c0.014,0.159,0.021,0.28,0.021,0.364v0.126
		l-0.196-0.084v-0.099c-0.019-0.205-0.07-0.345-0.154-0.42c-0.084-0.074-0.261-0.111-0.531-0.111h-2.633v2.52h2.576
		c0.262,0,0.435-0.035,0.519-0.104c0.084-0.07,0.135-0.208,0.153-0.413v-0.099l0.196-0.084v0.126c0,0.075-0.005,0.191-0.014,0.351
		c-0.01,0.158-0.015,0.266-0.015,0.321v0.687c0,0.047,0.005,0.149,0.015,0.308c0.009,0.159,0.014,0.28,0.014,0.364v0.126
		l-0.196-0.07v-0.111c-0.019-0.205-0.069-0.344-0.153-0.413c-0.084-0.07-0.257-0.105-0.519-0.105h-2.576v3.038h2.633
		c0.271,0,0.447-0.037,0.531-0.112c0.084-0.074,0.136-0.214,0.154-0.42v-0.098l0.196-0.084v0.126c0,0.075-0.007,0.191-0.021,0.35
		c-0.015,0.159-0.021,0.267-0.021,0.322v0.7c0,0.047,0.007,0.151,0.021,0.315c0.014,0.163,0.021,0.282,0.021,0.356V75.403z"/>
	<path fill="#A2291F" d="M305.671,74.731h-0.111c-0.066,0-0.173,0-0.322,0s-0.266,0-0.35,0c-0.121,0-0.379,0-0.771,0l-3.653-3.641
		h-0.785v2.772c0,0.262,0.037,0.437,0.113,0.524c0.074,0.089,0.214,0.143,0.42,0.161h0.098l0.084,0.183h-0.127
		c-0.074,0-0.191,0-0.35,0s-0.266,0-0.322,0h-0.699c-0.047,0-0.149,0-0.309,0c-0.158,0-0.279,0-0.363,0h-0.112l0.069-0.183h0.099
		c0.205-0.019,0.345-0.072,0.42-0.161c0.075-0.088,0.112-0.263,0.112-0.524v-6.496c0-0.262-0.037-0.437-0.112-0.525
		c-0.075-0.088-0.215-0.142-0.42-0.161h-0.099l-0.069-0.182h0.112c0.084,0,0.205,0,0.363,0c0.159,0,0.262,0,0.309,0h1.918
		c0.672,0,1.238,0.209,1.701,0.625c0.461,0.417,0.693,0.953,0.693,1.609c0,0.486-0.148,0.938-0.441,1.355
		c-0.295,0.417-0.688,0.709-1.184,0.878l2.898,2.894c0.289,0.291,0.49,0.474,0.602,0.548c0.112,0.075,0.252,0.122,0.42,0.141
		c0.028,0.01,0.061,0.01,0.098,0L305.671,74.731z M302.339,68.752c0-0.424-0.143-0.777-0.427-1.06
		c-0.284-0.283-0.669-0.424-1.155-0.424h-1.078v3.037h1.078c0.467,0,0.848-0.147,1.142-0.444S302.339,69.195,302.339,68.752z"/>
	<path fill="#A2291F" d="M314.394,68.43h-0.225c-0.047-0.298-0.191-0.541-0.434-0.728c-0.588-0.336-1.181-0.504-1.777-0.504
		c-0.934,0-1.736,0.334-2.408,1.001s-1.008,1.473-1.008,2.415c0,0.934,0.336,1.736,1.008,2.408s1.475,1.008,2.408,1.008
		c0.615,0,1.24-0.196,1.875-0.588c0.188-0.205,0.304-0.438,0.35-0.7h0.168v0.112c0,0.093-0.006,0.207-0.021,0.343
		c-0.014,0.136-0.021,0.227-0.021,0.272l0.041,0.715c-0.709,0.485-1.507,0.728-2.393,0.728c-1.186,0-2.199-0.42-3.039-1.26
		s-1.26-1.853-1.26-3.038s0.42-2.198,1.26-3.038s1.854-1.26,3.039-1.26c0.896,0,1.693,0.242,2.393,0.728v0.658
		c0,0.037,0.008,0.124,0.021,0.259c0.014,0.136,0.021,0.255,0.021,0.357V68.43z"/>
	<path fill="#A2291F" d="M323.969,74.731h-0.126c-0.074,0-0.191,0-0.35,0c-0.159,0-0.266,0-0.322,0h-0.7c-0.047,0-0.149,0-0.308,0
		c-0.159,0-0.28,0-0.364,0h-0.112l0.07-0.183h0.098c0.205-0.019,0.346-0.072,0.42-0.161c0.075-0.088,0.112-0.263,0.112-0.524v-3.01
		h-3.5v3.01c0,0.262,0.037,0.437,0.112,0.524c0.074,0.089,0.215,0.143,0.42,0.161h0.098l0.084,0.183h-0.126c-0.075,0-0.191,0-0.35,0
		c-0.159,0-0.267,0-0.322,0h-0.7c-0.047,0-0.148,0-0.308,0s-0.28,0-0.364,0h-0.111l0.069-0.183h0.099
		c0.205-0.019,0.345-0.072,0.42-0.161c0.074-0.088,0.111-0.263,0.111-0.524v-6.496c0-0.262-0.037-0.437-0.111-0.525
		c-0.075-0.088-0.215-0.142-0.42-0.161h-0.099l-0.069-0.182h0.111c0.084,0,0.205,0,0.364,0s0.261,0,0.308,0h0.7
		c0.056,0,0.163,0,0.322,0c0.158,0,0.274,0,0.35,0h0.126l-0.084,0.182h-0.098c-0.205,0.02-0.346,0.073-0.42,0.161
		c-0.075,0.089-0.112,0.264-0.112,0.525v2.716h3.5v-2.716c0-0.262-0.037-0.437-0.112-0.525c-0.074-0.088-0.215-0.142-0.42-0.161
		h-0.098l-0.07-0.182h0.112c0.084,0,0.205,0,0.364,0c0.158,0,0.261,0,0.308,0h0.7c0.057,0,0.163,0,0.322,0c0.158,0,0.275,0,0.35,0
		h0.126l-0.084,0.182h-0.099c-0.205,0.02-0.345,0.073-0.42,0.161c-0.074,0.089-0.111,0.264-0.111,0.525v6.496
		c0,0.262,0.037,0.437,0.111,0.524c0.075,0.089,0.215,0.143,0.42,0.161h0.099L323.969,74.731z"/>
</g>
</svg>
