<?xml version="1.0" encoding="utf-8"?>
<!-- Generator: Adobe Illustrator 16.0.0, SVG Export Plug-In . SVG Version: 6.00 Build 0)  -->
<!DOCTYPE svg PUBLIC "-//W3C//DTD SVG 1.1//EN" "http://www.w3.org/Graphics/SVG/1.1/DTD/svg11.dtd">
<svg version="1.1" id="Layer_1" xmlns="http://www.w3.org/2000/svg" xmlns:xlink="http://www.w3.org/1999/xlink" x="0px" y="0px"
	 width="5.508px" height="8.652px" viewBox="178.866 -36.902 5.508 8.652" enable-background="new 178.866 -36.902 5.508 8.652"
	 xml:space="preserve">
<g>
	<path fill="#BC3435" d="M183.187-31.394l-2.101,2.088c-0.168,0.168-0.252,0.308-0.252,0.42c0,0.08,0.052,0.184,0.156,0.312
		l0.072,0.072l-0.168,0.252l-0.061-0.084c-0.096-0.112-0.228-0.256-0.396-0.432l-1.08-1.068c-0.096-0.088-0.24-0.216-0.433-0.384
		l-0.06-0.084l0.252-0.156c0.008,0.008,0.024,0.028,0.048,0.06c0.136,0.104,0.244,0.156,0.324,0.156c0.104,0,0.24-0.084,0.408-0.252
		l2.1-2.088l-2.1-2.088c-0.168-0.168-0.305-0.252-0.408-0.252c-0.08,0-0.188,0.052-0.324,0.156c-0.016,0.016-0.032,0.036-0.048,0.06
		l-0.252-0.156l0.06-0.072c0.112-0.096,0.257-0.224,0.433-0.384l1.08-1.092c0.088-0.096,0.22-0.236,0.396-0.42l0.061-0.072
		l0.168,0.252c-0.009,0.008-0.032,0.024-0.072,0.048c-0.104,0.136-0.156,0.248-0.156,0.336c0,0.104,0.084,0.24,0.252,0.408
		l2.101,2.088l1.188,1.188L183.187-31.394z M184.374-32.582"/>
</g>
</svg>
