<?xml version="1.0" encoding="utf-8"?>
<!-- Generator: Adobe Illustrator 16.0.0, SVG Export Plug-In . SVG Version: 6.00 Build 0)  -->
<!DOCTYPE svg PUBLIC "-//W3C//DTD SVG 1.1//EN" "http://www.w3.org/Graphics/SVG/1.1/DTD/svg11.dtd">
<svg version="1.1" id="social-medias" xmlns="http://www.w3.org/2000/svg" xmlns:xlink="http://www.w3.org/1999/xlink" x="0px"
	 y="0px" width="973.917px" height="457.088px" viewBox="0 0 973.917 457.088" enable-background="new 0 0 973.917 457.088"
	 xml:space="preserve">
<text id="follow-us" transform="matrix(1 0 0 1 659.0854 38.3975)" fill="#BB3635" font-family="'ExocetLight'" font-size="48">follow us</text>
<g id="youtube_1_">
	<path id="youtube-underlay" fill="#FFFFFF" d="M592.337,281.498h-61.425c-28.671,0-51.995,23.324-51.995,51.994v61.426
		c0,28.67,23.324,51.994,51.995,51.994h61.425c28.669,0,51.994-23.324,51.994-51.994v-61.426
		C644.332,304.822,621.006,281.498,592.337,281.498z"/>
	<path id="youtube-icon" fill="#BB3635" d="M640.937,247.147h-168.35c-41.604,0-61.635,15.883-61.635,71.867v72.969
		c0,34.597,10.379,65.104,51.987,65.104h198.775c41.607,0,50.584-27.991,50.584-52.485V296.813
		C712.298,263.03,690.021,247.147,640.937,247.147z M620.396,361.185l-92.992,53.688c-8.637,4.988-15.703,0.907-15.703-9.065
		V298.429c0-9.973,7.066-14.054,15.703-9.065l92.992,53.688C629.031,348.038,629.031,356.197,620.396,361.185z"/>
</g>
<path id="facebook" fill="#BB3635" d="M402.255,246.823v33.667c0,0-13.085,0-23.989,0c-10.903,0-15.266,6.543-15.266,27.532v16.356
	h37.075l-5.181,35.712H363v97.32h-36.53v-96.775h-32.713v-35.984h32.167c0,0,0.818-12.812,0.818-35.165
	c0-22.354,15.539-42.663,42.663-42.663H402.255z"/>
<path id="twitter" fill="#BB3635" d="M368.334,59.325c0,0,19.999-5.667,35.666-40.667c-21,10.667-43,17.666-52.667,19.666
	c-21.667-32.909-122-59.333-150,48.667c0,0,4.667,25.667,1.333,30c-91-4.666-139-41.666-182.334-90.333
	c0,0-34.333,62.999,27.334,111.333c8,13.334-36.333-1-39-5.333c0,0,4.666,67.667,69.666,82.333C86,223.991,42,221.658,42,221.658
	s16.333,52.666,79.333,55.999c-7,21.335-63.666,45.335-121.333,41.667c109,71.001,365.666,40.335,374.334-226.333
	c0,0,31.416-26.333,37.666-39.083c-8.5,4.25-36,11.75-41.75,11.25C367.148,63.237,368.334,59.325,368.334,59.325z"/>
<g id="instagram_1_">
	<path id="instagram-underlay" fill="#FFFFFF" d="M573.335,19.13h-77.764c-36.297,0-65.826,29.528-65.826,65.824v77.766
		c0,36.296,29.528,65.824,65.826,65.824h77.764c36.295,0,65.824-29.528,65.824-65.824V84.954
		C639.16,48.659,609.63,19.13,573.335,19.13z"/>
	<g id="instagram-icon">
		<path fill="#BB3635" d="M534.453,63.062c-34.889,0-63.272,28.383-63.272,63.271c0,34.888,28.383,63.27,63.272,63.27
			s63.27-28.382,63.27-63.27C597.722,91.444,569.341,63.062,534.453,63.062z M534.453,173.099
			c-25.785,0-46.766-20.979-46.766-46.766s20.979-46.766,46.766-46.766s46.766,20.979,46.766,46.766
			C581.218,152.119,560.24,173.099,534.453,173.099z"/>
		<circle fill="#BB3635" cx="596.748" cy="57.56" r="13.755"/>
		<path fill="#BB3635" d="M577.238,11.116h-85.568c-39.939,0-72.433,32.492-72.433,72.431v85.571
			c0,39.938,32.492,72.431,72.433,72.431h85.568c39.938,0,72.432-32.492,72.432-72.431V83.547
			C649.669,43.608,617.175,11.116,577.238,11.116z M633.164,165.838c0,30.837-25.09,55.926-55.926,55.926h-85.568
			c-30.838,0-55.927-25.089-55.927-55.926v-85.57c0-30.837,25.089-55.925,55.927-55.925h85.568
			c30.836,0,55.926,25.088,55.926,55.925V165.838z"/>
	</g>
</g>
<g id="tumblr">
	<path fill="#BB3635" d="M889.382,50.557H768.513c0,0-14.83,2.688-16.312,19.743c-1.482,17.056-10.381,73.411-72.67,87.5
		c0,79.344,0,83.793,0,83.793h42.27v108.264c11.121,135.698,211.334,121.609,252.117,71.928l-25.213-77.117h-57.84V240.853h65.998
		v-95.654h-66.738L889.382,50.557z"/>
	<polygon fill="#A53333" points="766.289,241.498 766.289,266.308 721.8,266.308 721.8,241.593 	"/>
	<path fill="#9B2B2F" d="M870.845,66.594h-54.131c0,0-2.967,74.895-72.67,104.555c0.74,38.561,0,52.648,0,52.648h40.043
		c0,0-0.004-7.413,0.738,126.802c23.729,131.251,172.303,84.977,169.811,64.515l-16.312-50.425c0,0-64.514,28.179-65.996-32.627
		V224.539h68.221v-62.288h-69.705V66.594"/>
</g>
</svg>
