<?xml version="1.0" encoding="utf-8"?>
<!-- Generator: Adobe Illustrator 16.0.0, SVG Export Plug-In . SVG Version: 6.00 Build 0)  -->
<!DOCTYPE svg PUBLIC "-//W3C//DTD SVG 1.1//EN" "http://www.w3.org/Graphics/SVG/1.1/DTD/svg11.dtd">
<svg version="1.1" id="Layer_1" xmlns="http://www.w3.org/2000/svg" xmlns:xlink="http://www.w3.org/1999/xlink" x="0px" y="0px"
	 width="8.652px" height="5.508px" viewBox="177.293 -35.33 8.652 5.508" enable-background="new 177.293 -35.33 8.652 5.508"
	 xml:space="preserve">
<g>
	<g id="XMLID_1_">
		<g>
			<path fill="#BC3435" d="M185.858-31.787c-0.11,0.09-0.25,0.22-0.431,0.39l-1.069,1.08c-0.091,0.1-0.21,0.24-0.381,0.43
				l-0.09,0.06l-0.149-0.25c0.01-0.01,0.029-0.02,0.06-0.05c0.101-0.13,0.16-0.24,0.16-0.32c0-0.1-0.09-0.24-0.26-0.41l-2.08-2.1
				l-2.09,2.1c-0.17,0.17-0.261,0.31-0.261,0.41c0,0.08,0.061,0.19,0.16,0.32c0.021,0.02,0.04,0.04,0.061,0.05l-0.16,0.25
				l-0.07-0.06c-0.09-0.11-0.22-0.25-0.38-0.43l-1.09-1.08c-0.101-0.09-0.24-0.22-0.42-0.39l-0.08-0.06l0.26-0.17
				c0,0.01,0.021,0.03,0.04,0.07c0.14,0.1,0.25,0.16,0.34,0.16c0.11,0,0.24-0.09,0.41-0.26l2.09-2.1l1.19-1.18l1.18,1.18l2.09,2.1
				c0.17,0.17,0.311,0.26,0.42,0.26c0.08,0,0.181-0.06,0.311-0.16l0.08-0.07l0.25,0.17L185.858-31.787z"/>
		</g>
		<g>
		</g>
	</g>
</g>
</svg>
