<?xml version="1.0" encoding="utf-8"?>
<!-- Generator: Adobe Illustrator 16.0.0, SVG Export Plug-In . SVG Version: 6.00 Build 0)  -->
<!DOCTYPE svg PUBLIC "-//W3C//DTD SVG 1.1//EN" "http://www.w3.org/Graphics/SVG/1.1/DTD/svg11.dtd">
<svg version="1.1" id="Layer_1" xmlns="http://www.w3.org/2000/svg" xmlns:xlink="http://www.w3.org/1999/xlink" x="0px" y="0px"
	 width="93.334px" height="48.787px" viewBox="0.001 0 93.334 48.787" enable-background="new 0.001 0 93.334 48.787"
	 xml:space="preserve">
<g>
	<path fill="#BB3535" d="M40.308,43.049L11.315,16.176c-1.979-1.826-3.584-2.739-4.809-2.739c-1.039,0-2.31,0.564-3.818,1.695
		c-0.282,0.174-0.518,0.392-0.707,0.652l-1.98-0.783l0.99-0.782c1.979-1.565,3.63-2.958,4.949-4.175l4.949-4.565
		c1.036-1.044,2.547-2.608,4.525-4.697l0.99-0.781l0.707,1.827c-0.096,0.084-0.332,0.26-0.707,0.521
		c-1.228,1.479-1.84,2.65-1.84,3.521c0,1.129,0.99,2.607,2.971,4.437L46.669,37.18l29.133-26.874
		c1.98-1.827,2.971-3.308,2.971-4.437c0-0.871-0.612-2.045-1.838-3.521c-0.283-0.175-0.52-0.349-0.707-0.521L76.935,0l0.988,0.781
		c1.133,1.217,2.641,2.783,4.525,4.697l4.949,4.565c1.316,1.217,2.971,2.608,4.948,4.175L93.335,15l-1.979,0.783
		c-0.095-0.089-0.33-0.308-0.707-0.652c-1.508-1.131-2.779-1.695-3.816-1.695c-1.229,0-2.828,0.913-4.809,2.739l-28.99,26.874
		l-6.366,5.738L40.308,43.049z"/>
</g>
</svg>
