<?xml version="1.0" encoding="utf-8"?>
<!-- Generator: Adobe Illustrator 16.0.0, SVG Export Plug-In . SVG Version: 6.00 Build 0)  -->
<!DOCTYPE svg PUBLIC "-//W3C//DTD SVG 1.1//EN" "http://www.w3.org/Graphics/SVG/1.1/DTD/svg11.dtd">
<svg version="1.1" id="Layer_1" xmlns="http://www.w3.org/2000/svg" xmlns:xlink="http://www.w3.org/1999/xlink" x="0px" y="0px"
	 width="8.652px" height="5.512px" viewBox="177.294 -35.334 8.652 5.512" enable-background="new 177.294 -35.334 8.652 5.512"
	 xml:space="preserve">
<g>
	<path fill="#BC3435" d="M180.438-31.01l-2.088-2.101c-0.168-0.168-0.31-0.252-0.42-0.252c-0.08,0-0.186,0.052-0.312,0.156
		l-0.072,0.072l-0.252-0.168l0.084-0.062c0.113-0.096,0.257-0.228,0.435-0.396l1.065-1.08c0.089-0.096,0.217-0.24,0.387-0.433
		l0.084-0.06l0.154,0.252c-0.008,0.008-0.026,0.024-0.061,0.048c-0.104,0.136-0.156,0.244-0.156,0.324
		c0,0.104,0.084,0.24,0.252,0.408l2.088,2.1l2.089-2.1c0.168-0.168,0.252-0.305,0.252-0.408c0-0.08-0.052-0.188-0.154-0.324
		c-0.019-0.016-0.036-0.032-0.062-0.048l0.156-0.252l0.071,0.06c0.097,0.112,0.224,0.257,0.384,0.433l1.092,1.08
		c0.097,0.088,0.236,0.22,0.42,0.396l0.072,0.062l-0.252,0.168c-0.008-0.009-0.023-0.032-0.048-0.072
		c-0.138-0.104-0.248-0.156-0.336-0.156c-0.104,0-0.239,0.084-0.407,0.252l-2.089,2.101l-1.188,1.188L180.438-31.01z"/>
</g>
</svg>
