<?xml version="1.0" encoding="utf-8"?>
<!-- Generator: Adobe Illustrator 16.0.0, SVG Export Plug-In . SVG Version: 6.00 Build 0)  -->
<!DOCTYPE svg PUBLIC "-//W3C//DTD SVG 1.1//EN" "http://www.w3.org/Graphics/SVG/1.1/DTD/svg11.dtd">
<svg version="1.1" id="Layer_1" xmlns="http://www.w3.org/2000/svg" xmlns:xlink="http://www.w3.org/1999/xlink" x="0px" y="0px"
	 width="2000px" height="2000px" viewBox="0 0 2000 2000" enable-background="new 0 0 2000 2000" xml:space="preserve">
<path fill="#BC3636" d="M997.396,2003.037c-134.608,0-265.237-26.493-388.261-78.741c-59.119-25.108-116.133-56.184-169.457-92.354
	c-52.794-35.816-102.437-76.945-147.548-122.242c-45.112-45.297-86.07-95.146-121.737-148.159
	c-36.025-53.543-66.971-110.793-91.976-170.157C26.383,1267.852,0,1136.683,0,1001.519c0-135.163,26.383-266.333,78.417-389.863
	c25.005-59.363,55.951-116.613,91.976-170.158c35.667-53.012,76.625-102.86,121.737-148.158
	c45.111-45.298,94.754-86.426,147.548-122.241c53.324-36.173,110.338-67.247,169.457-92.355C732.159,26.493,862.789,0,997.396,0
	c134.606,0,265.236,26.493,388.26,78.741c59.119,25.109,116.133,56.183,169.457,92.356
	c52.795,35.815,102.437,76.943,147.548,122.241c45.112,45.297,86.069,95.146,121.737,148.158
	c36.024,53.545,66.971,110.795,91.977,170.158c52.035,123.531,78.418,254.7,78.418,389.863c0,135.164-26.383,266.334-78.418,389.863
	c-25.006,59.364-55.951,116.614-91.977,170.157c-35.668,53.014-76.625,102.862-121.737,148.159
	c-45.111,45.297-94.753,86.426-147.548,122.242c-53.324,36.172-110.338,67.245-169.457,92.354
	C1262.634,1976.544,1132.004,2003.037,997.396,2003.037z M997.396,182.094c-110.207,0-217.068,21.653-317.617,64.357
	c-97.164,41.267-184.445,100.363-259.418,175.646c-74.976,75.284-133.828,162.927-174.924,260.492
	c-42.528,100.964-64.092,208.268-64.092,318.929s21.563,217.966,64.092,318.929c41.097,97.565,99.95,185.207,174.924,260.492
	c74.974,75.281,162.254,134.381,259.418,175.646c100.549,42.702,207.41,64.355,317.617,64.355
	c110.205,0,217.067-21.653,317.614-64.355c97.166-41.267,184.445-100.365,259.421-175.646
	c74.974-75.285,133.827-162.927,174.924-260.492c42.527-100.963,64.093-208.268,64.093-318.929s-21.564-217.965-64.093-318.929
	c-41.097-97.565-99.95-185.208-174.924-260.492c-74.976-75.284-162.255-134.38-259.421-175.646
	C1214.465,203.748,1107.604,182.094,997.396,182.094z"/>
<g>
	<path fill="#BC3636" d="M1257.359,1165.801l-291.926,290.16c-23.346,23.483-35.018,43.027-35.018,58.502
		c0,10.986,7.192,25.646,21.715,43.292l9.909,9.904l-23.479,35.019l-8.418-11.672c-13.297-15.476-31.756-35.56-55.101-60.124
		l-150.103-148.338c-13.437-12.213-33.388-29.997-60.122-53.343l-8.548-11.664l35.012-21.715c1.087,1.22,3.258,3.794,6.785,8.411
		c18.865,14.521,33.934,21.715,45.06,21.715c14.386,0,33.252-11.673,56.592-35.019l291.932-290.3L799.72,710.47
		c-23.34-23.347-42.477-35.011-56.592-35.011c-11.126,0-26.192,7.322-45.06,21.578c-2.306,2.309-4.477,5.02-6.785,8.549
		l-35.012-21.716l8.548-10.042c15.338-13.303,35.559-31.078,60.122-53.342l150.103-151.729
		c12.218-13.432,30.675-32.847,55.101-58.354l8.418-10.042l23.479,35.01c-1.225,1.09-4.479,3.262-9.909,6.651
		c-14.521,19.003-21.715,34.469-21.715,46.69c0,14.515,11.672,33.379,35.018,56.724L1257.359,835.6l165.17,165.168
		L1257.359,1165.801z"/>
</g>
</svg>
