<?xml version="1.0" encoding="utf-8"?>
<!-- Generator: Adobe Illustrator 16.0.0, SVG Export Plug-In . SVG Version: 6.00 Build 0)  -->
<!DOCTYPE svg PUBLIC "-//W3C//DTD SVG 1.1//EN" "http://www.w3.org/Graphics/SVG/1.1/DTD/svg11.dtd">
<svg version="1.1" id="Layer_1" xmlns="http://www.w3.org/2000/svg" xmlns:xlink="http://www.w3.org/1999/xlink" x="0px" y="0px"
	 width="110px" height="20px" viewBox="0 0 110 20" enable-background="new 0 0 110 20" xml:space="preserve">
<g>
	<path d="M30,10c0-5.522,4.477-10,10-10H10c5.523,0,10,4.478,10,10s-4.477,10-10,10h30C34.477,20,30,15.522,30,10z"/>
	<path d="M0,10v10h10C4.477,20,0,15.522,0,10z"/>
	<path d="M10,0H0v10C0,4.478,4.477,0,10,0z"/>
	<path d="M60,10c0-5.522,4.477-10,10-10H40c5.523,0,10,4.478,10,10s-4.477,10-10,10h30C64.477,20,60,15.522,60,10z"/>
	<path d="M100,0c5.523,0,10,4.478,10,10V0H100z"/>
	<path d="M100,20h10V10C110,15.522,105.523,20,100,20z"/>
	<path d="M90,10c0-5.522,4.477-10,10-10H70c5.523,0,10,4.478,10,10s-4.477,10-10,10h30C94.477,20,90,15.522,90,10z"/>
</g>
</svg>
