<?xml version="1.0" encoding="utf-8"?>
<!-- Generator: Adobe Illustrator 16.0.0, SVG Export Plug-In . SVG Version: 6.00 Build 0)  -->
<!DOCTYPE svg PUBLIC "-//W3C//DTD SVG 1.1//EN" "http://www.w3.org/Graphics/SVG/1.1/DTD/svg11.dtd">
<svg version="1.1" id="Layer_1" xmlns="http://www.w3.org/2000/svg" xmlns:xlink="http://www.w3.org/1999/xlink" x="0px" y="0px"
	 width="48.789px" height="93.339px" viewBox="0 0 48.789 93.339" enable-background="new 0 0 48.789 93.339" xml:space="preserve">
<g>
	<path fill="#BB3535" d="M43.048,53.032L16.175,82.024c-1.826,1.979-2.739,3.584-2.739,4.808c0,1.039,0.564,2.311,1.695,3.819
		c0.174,0.281,0.392,0.517,0.652,0.707L15,93.337l-0.782-0.99c-1.565-1.979-2.958-3.63-4.175-4.948l-4.565-4.95
		c-1.044-1.036-2.608-2.546-4.696-4.525L0,76.934l1.826-0.707c0.084,0.095,0.26,0.332,0.521,0.707
		c1.478,1.227,2.651,1.839,3.522,1.839c1.129,0,2.607-0.99,4.436-2.971l26.874-29.134L10.305,17.535
		c-1.827-1.98-3.307-2.971-4.436-2.971c-0.871,0-2.045,0.613-3.522,1.838c-0.175,0.283-0.349,0.52-0.521,0.707L0,16.402l0.781-0.988
		c1.217-1.133,2.782-2.64,4.696-4.525l4.565-4.95c1.217-1.317,2.609-2.97,4.175-4.949L15,0l0.783,1.979
		c-0.088,0.094-0.307,0.33-0.652,0.707C14,4.195,13.436,5.467,13.436,6.504c0,1.228,0.913,2.828,2.739,4.809l26.874,28.99
		l5.738,6.366L43.048,53.032z"/>
</g>
</svg>
