<?xml version="1.0" encoding="utf-8"?>
<!-- Generator: Adobe Illustrator 16.0.0, SVG Export Plug-In . SVG Version: 6.00 Build 0)  -->
<!DOCTYPE svg PUBLIC "-//W3C//DTD SVG 1.1//EN" "http://www.w3.org/Graphics/SVG/1.1/DTD/svg11.dtd">
<svg version="1.1" id="social-medias" xmlns="http://www.w3.org/2000/svg" xmlns:xlink="http://www.w3.org/1999/xlink" x="0px"
	 y="0px" width="973.917px" height="457.088px" viewBox="0 0 973.917 457.088" enable-background="new 0 0 973.917 457.088"
	 xml:space="preserve">
<text id="follow-us" transform="matrix(1 0 0 1 659.0859 38.3975)" fill="#BB3635" font-family="'ExocetLight'" font-size="48">follow us</text>
<path id="youtube" fill="#E22D27" d="M640.938,247.147H472.587c-41.605,0-61.635,15.883-61.635,71.867v72.969
	c0,34.597,10.379,65.104,51.987,65.104h198.775c41.608,0,50.584-27.991,50.584-52.485V296.813
	C712.298,263.03,690.021,247.147,640.938,247.147z M620.396,361.185l-92.993,53.688c-8.636,4.988-15.703,0.907-15.703-9.065V298.429
	c0-9.973,7.067-14.054,15.703-9.066l92.993,53.688C629.031,348.038,629.031,356.197,620.396,361.185z"/>
<path id="facebook" fill="#39579B" d="M402.255,246.823v33.667c0,0-13.085,0-23.989,0S363,287.033,363,308.023v16.356h37.075
	l-5.18,35.712H363v97.32H326.47v-96.775h-32.713v-35.984h32.167c0,0,0.818-12.812,0.818-35.166s15.539-42.663,42.663-42.663H402.255
	z"/>
<path id="twitter" fill="#21A7E0" d="M368.334,59.325c0,0,19.999-5.667,35.666-40.667c-21,10.667-43,17.666-52.667,19.666
	c-21.667-32.909-122-59.333-150,48.667c0,0,4.667,25.667,1.333,30c-91-4.666-139-41.666-182.334-90.333
	c0,0-34.333,62.999,27.334,111.333c8,13.334-36.333-1-39-5.333c0,0,4.666,67.667,69.666,82.333C86,223.991,42,221.658,42,221.658
	s16.333,52.666,79.333,55.999c-7,21.335-63.666,45.335-121.333,41.667c109,71.001,365.666,40.335,374.334-226.333
	c0,0,31.416-26.333,37.666-39.083c-8.5,4.25-36,11.75-41.75,11.25C367.148,63.237,368.334,59.325,368.334,59.325z"/>
<path id="instagram-underlay" fill="#FFFFFF" d="M573.336,19.13h-77.764c-36.297,0-65.827,29.528-65.827,65.824v77.766
	c0,36.296,29.529,65.824,65.827,65.824h77.764c36.295,0,65.824-29.528,65.824-65.824V84.954
	C639.16,48.658,609.631,19.13,573.336,19.13z"/>
<g id="instagram">
	<linearGradient id="SVGID_1_" gradientUnits="userSpaceOnUse" x1="478.3057" y1="235.8633" x2="600.3057" y2="-2.1367">
		<stop  offset="0" style="stop-color:#F8EC33"/>
		<stop  offset="0.5865" style="stop-color:#EE2C7B"/>
		<stop  offset="0.7504" style="stop-color:#AA488D"/>
		<stop  offset="0.9222" style="stop-color:#63539E"/>
		<stop  offset="1" style="stop-color:#3B56A6"/>
	</linearGradient>
	<path fill="url(#SVGID_1_)" d="M534.453,63.062c-34.888,0-63.272,28.383-63.272,63.271c0,34.888,28.384,63.27,63.272,63.27
		s63.27-28.382,63.27-63.27C597.723,91.444,569.341,63.062,534.453,63.062z M534.453,173.099c-25.786,0-46.766-20.979-46.766-46.766
		c0-25.787,20.979-46.766,46.766-46.766c25.787,0,46.766,20.979,46.766,46.766C581.219,152.119,560.24,173.099,534.453,173.099z"/>
	<linearGradient id="SVGID_2_" gradientUnits="userSpaceOnUse" x1="499.7207" y1="246.8408" x2="621.7207" y2="8.8408">
		<stop  offset="0" style="stop-color:#F8EC33"/>
		<stop  offset="0.5865" style="stop-color:#EE2C7B"/>
		<stop  offset="0.7504" style="stop-color:#AA488D"/>
		<stop  offset="0.9222" style="stop-color:#63539E"/>
		<stop  offset="1" style="stop-color:#3B56A6"/>
	</linearGradient>
	<circle fill="url(#SVGID_2_)" cx="596.747" cy="57.56" r="13.755"/>
	<linearGradient id="SVGID_3_" gradientUnits="userSpaceOnUse" x1="478.3066" y1="235.8643" x2="600.3066" y2="-2.1358">
		<stop  offset="0" style="stop-color:#F8EC33"/>
		<stop  offset="0.5865" style="stop-color:#EE2C7B"/>
		<stop  offset="0.7504" style="stop-color:#AA488D"/>
		<stop  offset="0.9222" style="stop-color:#63539E"/>
		<stop  offset="1" style="stop-color:#3B56A6"/>
	</linearGradient>
	<path fill="url(#SVGID_3_)" d="M577.238,11.116H491.67c-39.94,0-72.434,32.492-72.434,72.431v85.571
		c0,39.938,32.493,72.431,72.434,72.431h85.568c39.938,0,72.431-32.492,72.431-72.431V83.547
		C649.669,43.608,617.176,11.116,577.238,11.116z M633.163,165.838c0,30.837-25.089,55.926-55.925,55.926H491.67
		c-30.839,0-55.928-25.089-55.928-55.926v-85.57c0-30.837,25.089-55.925,55.928-55.925h85.568c30.836,0,55.925,25.088,55.925,55.925
		V165.838z"/>
</g>
<path fill="#FFFFFF" d="M889.383,50.557H768.514c0,0-14.831,2.688-16.314,19.743c-1.482,17.056-10.381,73.411-72.669,87.5
	c0,79.344,0,83.793,0,83.793h42.27l-0.001,108.263c11.121,135.699,211.334,121.61,252.118,71.928l-25.214-77.117h-57.839V240.852
	h65.997v-95.654h-66.738L889.383,50.557z"/>
<polygon fill="#99A1AE" points="766.289,241.498 766.289,266.308 721.8,266.308 721.8,241.593 "/>
<path fill="#35445B" d="M870.846,66.594h-54.132c0,0-2.966,74.894-72.67,104.555c0.741,38.561,0,52.648,0,52.648h40.043
	c0,0-0.003-7.413,0.739,126.802c23.729,131.251,172.303,84.976,169.811,64.514l-16.314-50.425c0,0-64.512,28.179-65.995-32.627
	V224.539h68.22v-62.288h-69.704V66.594"/>
</svg>
