<?xml version="1.0" ?><svg enable-background="new 0 0 32 32" version="1.1" viewBox="0 0 32 32" xml:space="preserve" xmlns="http://www.w3.org/2000/svg" xmlns:xlink="http://www.w3.org/1999/xlink"><g id="Flat_copy"><g><path d="M16,0C7.163,0,0,7.163,0,16c0,8.836,7.163,16,16,16s16-7.164,16-16C32,7.163,24.837,0,16,0z" fill="#333333"/></g><g><path d="M22.014,9.494c1.592,1.634,2.388,3.781,2.388,6.441c0,2.428-0.796,4.539-2.388,6.336    c-1.592,1.797-3.608,2.696-6.049,2.696c-2.417,0-4.416-0.898-5.997-2.695c-1.581-1.797-2.37-3.909-2.37-6.337    c0-2.661,0.779-4.807,2.336-6.441c1.557-1.633,3.567-2.45,6.031-2.45C18.405,7.043,20.422,7.861,22.014,9.494z M18.963,13.239    c-0.069-0.723-0.209-1.429-0.418-2.118c-0.209-0.688-0.529-1.219-0.958-1.593c-0.431-0.373-0.971-0.56-1.622-0.56    c-0.651,0-1.185,0.181-1.604,0.543c-0.418,0.362-0.726,0.893-0.924,1.593s-0.331,1.4-0.401,2.1    c-0.069,0.7-0.105,1.552-0.105,2.555c0,0.63,0.012,1.161,0.035,1.593c0.022,0.432,0.063,0.957,0.122,1.575    c0.058,0.618,0.151,1.138,0.279,1.558c0.128,0.42,0.301,0.835,0.523,1.243c0.221,0.408,0.505,0.718,0.854,0.928    c0.348,0.21,0.755,0.315,1.22,0.315c0.464,0,0.877-0.105,1.238-0.315c0.36-0.21,0.65-0.519,0.872-0.928    c0.221-0.408,0.401-0.822,0.541-1.242c0.139-0.42,0.244-0.939,0.314-1.558c0.07-0.618,0.11-1.149,0.123-1.593    c0.011-0.443,0.017-0.968,0.017-1.575C19.068,14.803,19.033,13.963,18.963,13.239z" fill="#FFFFFF"/></g></g></svg>