<?xml version="1.0" ?><svg enable-background="new 0 0 32 32" version="1.1" viewBox="0 0 32 32" xml:space="preserve" xmlns="http://www.w3.org/2000/svg" xmlns:xlink="http://www.w3.org/1999/xlink"><g id="Flat_copy"><g><path d="M16,0C7.163,0,0,7.163,0,16c0,8.836,7.163,16,16,16s16-7.164,16-16C32,7.163,24.837,0,16,0z" fill="#333333"/></g><g><path d="M13.455,17.354v0.036c0,0.59,0.135,1.157,0.407,1.697c0.32,0.566,0.758,1.014,1.312,1.346    c0.554,0.331,1.17,0.498,1.848,0.498s1.294-0.166,1.849-0.498c0.554-0.332,0.991-0.781,1.311-1.346h4.399    c-0.568,1.599-1.553,2.908-2.957,3.927c-1.405,1.02-2.982,1.531-4.731,1.531c-1.306,0-2.538-0.282-3.696-0.849    c-2.587,1.255-4.447,1.316-5.581,0.185c-0.395-0.368-0.591-0.983-0.591-1.844c0-0.86,0.166-1.819,0.499-2.877    c0.332-1.057,0.887-2.219,1.663-3.486c0.776-1.266,1.694-2.416,2.753-3.448c0.616-0.64,1.01-1.033,1.182-1.18    c-1.528,0.737-2.908,1.881-4.139,3.429c0.443-1.795,1.398-3.27,2.864-4.426c1.466-1.156,3.148-1.734,5.045-1.734    c0.197,0,0.394,0.012,0.591,0.037c1.38-0.615,2.636-0.959,3.77-1.033c1.133-0.074,1.933,0.111,2.402,0.553    c0.936,0.959,1.023,2.459,0.259,4.5c0.714,1.256,1.072,2.609,1.072,4.059c0,0.344-0.012,0.651-0.037,0.923h-4.362L13.455,17.354    L13.455,17.354z M12.679,23.403c-1.65-1.008-2.809-2.421-3.475-4.242c-1.109,2.164-1.256,3.652-0.444,4.463    C9.476,24.337,10.781,24.263,12.679,23.403z M20.292,15.215c-0.049-0.886-0.407-1.641-1.071-2.269    c-0.665-0.627-1.448-0.941-2.347-0.941c-0.9,0-1.682,0.314-2.347,0.941c-0.666,0.627-1.023,1.383-1.073,2.269H20.292z     M19.886,8.908c1.576,0.639,2.833,1.672,3.769,3.098c0.567-1.525,0.542-2.594-0.074-3.209C22.916,8.109,21.684,8.146,19.886,8.908    z" fill="#FFFFFF"/></g></g></svg>